<?xml version="1.0" encoding="UTF-8"?>
<svg width="337px" height="56px" viewBox="0 0 337 56" version="1.1" xmlns="http://www.w3.org/2000/svg" xmlns:xlink="http://www.w3.org/1999/xlink">
    <title>igot_karmayogi</title>
    <g id="Symbols" stroke="none" stroke-width="1" fill="none" fill-rule="evenodd">
        <g id="iGOT_Karmayogi_logo" transform="translate(-12.000000, -16.000000)">
            <g id="igot_karmayogi" transform="translate(12.000000, 16.000000)">
                <g>
                    <g id="igot">
                        <path d="M25.5494086,15.6047149 C27.3787197,15.6047149 28.8616694,17.091407 28.8616694,18.9253347 C28.8616694,19.9731614 28.3775628,20.9076337 27.6213443,21.5162218 L28.6431799,24.9054508 C29.5111518,27.8147525 27.8726289,30.88066 24.975749,31.7677315 L24.975749,31.7677315 L24.7357528,31.8339482 C22.8902675,32.2985151 20.9281796,31.7744318 19.5564114,30.4354829 C20.3624478,30.083307 21.0564767,29.5158879 21.5627236,28.7951767 C22.5656649,29.5958164 23.9713381,29.6498178 25.0324551,28.9284727 C26.0935722,28.2071276 26.5636988,26.8779614 26.192905,25.6475893 L26.192905,25.6475893 L25.1601044,22.2232606 C23.5142487,22.0300798 22.2371478,20.6272251 22.2371478,18.9253347 C22.2371478,17.091407 23.7200975,15.6047149 25.5494086,15.6047149 Z M17.5999827,22.8350644 C19.4292938,22.8350644 20.9122435,24.3217565 20.9122435,26.1556841 C20.9122435,27.9896117 19.4292938,29.4763038 17.5999827,29.4763038 C16.9691858,29.4763038 16.3795733,29.2995271 15.8777478,28.9926938 L15.7712556,28.9232006 L12.8620531,30.9325756 C10.3624169,32.6478729 6.95023971,32.0173396 5.22489755,29.5213122 L5.22489755,29.5213122 L5.08315774,29.3031716 C4.08462449,27.6843482 3.98647532,25.6557436 4.83879968,23.9412708 C5.41885755,24.6032472 6.16911841,25.0928048 7.00773189,25.3565349 C6.55195068,26.5583873 6.92878766,27.9177337 7.93778426,28.7114694 C8.94678087,29.505205 10.3534231,29.5488475 11.4094471,28.8191812 L11.4094471,28.8191812 L14.3485797,26.7898024 C14.350913,26.8019054 14.3533122,26.8139881 14.3557772,26.8260503 C14.3109734,26.6095165 14.2877219,26.3853225 14.2877219,26.1556841 C14.2877219,24.3217565 15.7706716,22.8350644 17.5999827,22.8350644 Z M1.20445762,10.0520061 C2.3986272,8.56730596 4.27958791,7.80142217 6.17866903,8.04230351 C5.7468243,8.81001516 5.5335508,9.68186883 5.56210964,10.5627739 C4.27984271,10.5281133 3.12414787,11.3336203 2.70994536,12.5507022 C2.29574286,13.7677841 2.71933244,15.1134762 3.75533125,15.8717648 L3.75533125,15.8717648 L6.63659906,17.9831588 L6.63659906,17.9831588 L6.73859425,17.9245825 C7.20561942,17.6722632 7.73997724,17.5290741 8.30769448,17.5290741 C10.1370056,17.5290741 11.6199553,19.0157662 11.6199553,20.8496938 C11.6199553,22.6836215 10.1370056,24.1703136 8.30769448,24.1703136 C6.47838337,24.1703136 4.9954337,22.6836215 4.9954337,20.8496938 C4.9954337,20.567634 5.03051247,20.293788 5.09653498,20.0323012 L2.24585819,17.9441515 C-0.195502779,16.1451199 -0.72868526,12.706889 1.05264617,10.2497155 L1.05264617,10.2497155 Z M20.9092505,5.90090385 C22.3015364,5.90090385 23.4931852,6.76210134 23.9830954,7.98213019 L27.5138187,7.98229231 C30.5413088,7.99382794 32.9917949,10.4531788 33,13.4883199 L33,13.4883199 L32.9942789,13.727825 C32.9073873,15.6370001 31.8387119,17.3726219 30.1606343,18.3032186 C30.0574747,17.4276897 29.7165165,16.5973612 29.1749374,15.9027705 C30.230544,15.1722024 30.6894585,13.8382302 30.3075086,12.6106131 C29.9255587,11.3829961 28.7915427,10.5471388 27.5088303,10.5477711 L27.5088303,10.5477711 L23.945157,10.5477711 L23.945157,10.5477711 L23.9068149,10.6360624 C23.3769741,11.7625581 22.233924,12.5421433 20.9092505,12.5421433 C19.0799394,12.5421433 17.5969897,11.0554512 17.5969897,9.22152359 C17.5969897,7.38759595 19.0799394,5.90090385 20.9092505,5.90090385 Z M11.2787525,3.81651483 C12.2143229,0.929618933 15.2990793,-0.658648038 18.1846167,0.26085122 L18.1846167,0.26085122 L18.4102965,0.339538227 C20.1966453,1.00617753 21.5180982,2.55663955 21.8889614,4.44263169 C21.0262817,4.27355408 20.1338564,4.3451698 19.3089896,4.64967033 C18.9378097,3.41887295 17.8113171,2.5731283 16.528779,2.56235237 C15.2462408,2.55157644 14.105767,3.37827396 13.7140623,4.60266155 L13.7140623,4.60266155 L12.6241006,8.00617439 C13.3137911,8.61470657 13.7489807,9.50628411 13.7489807,10.4997622 C13.7489807,12.3336898 12.2660311,13.8203819 10.4367199,13.8203819 C8.60740882,13.8203819 7.12445916,12.3336898 7.12445916,10.4997622 C7.12445916,8.74616499 8.48034051,7.31005007 10.1984243,7.18760399 Z" id="Combined-Shape" fill="#F69953"></path>
                        <circle id="dot" fill="#F69953" cx="44" cy="7" r="3"></circle>
                        <path d="M65.5323966,4.34827015 C66.1163816,4.41840644 66.7003667,4.49769095 67.2793518,4.60035422 C67.6193465,4.66978187 67.9552072,4.75869531 68.285326,4.86666885 C68.6093177,4.96831566 68.9283095,5.07606127 69.2483013,5.18482335 C69.8760305,5.40631661 70.479287,5.69384244 71.0482552,6.04272239 C71.6285566,6.38989533 72.175892,6.79108932 72.6832133,7.24113822 C72.7242122,7.27773107 72.7652111,7.31330745 72.8062101,7.3499003 C72.9982052,7.52676574 73.006205,7.55319391 72.8652086,7.76156986 C72.6198815,8.14172891 72.3735545,8.52188796 72.1262275,8.90204701 C71.874234,9.28932134 71.6262404,9.6786286 71.367247,10.0608206 C71.0697755,10.5618776 70.5044256,10.8311561 69.9352837,10.7428707 C69.7068988,10.7020319 69.4866484,10.623398 69.2833004,10.5100995 C68.794313,10.2580154 68.3213251,9.97543727 67.8353376,9.71827086 C67.2825878,9.43824404 66.6948557,9.23613821 66.0883823,9.11753824 C65.1974243,8.93693327 64.2866351,8.87881362 63.3804518,8.94473867 C61.856364,9.00405014 60.4092316,9.64074693 59.3235558,10.7296566 C58.665943,11.3902546 58.1569459,12.1878437 57.8315941,13.0675331 C57.6803888,13.4692097 57.5502099,13.8787418 57.4416041,14.29441 C57.3842788,14.5691998 57.3428753,14.8471739 57.3176072,15.1268974 C57.3116074,15.1655231 57.3176072,15.2061819 57.3076075,15.2448076 C57.2043943,16.0480709 57.1776044,16.8595779 57.2276095,17.6680675 C57.3366068,18.0217984 57.2846081,18.4009409 57.4006051,18.7577212 C57.4726033,18.9772783 57.4716033,19.2212307 57.5366016,19.4448536 C57.6365991,19.782321 57.7505961,20.1157225 57.8775929,20.4430253 C58.1046263,21.0289663 58.4127213,21.5789937 58.7925694,22.0764894 C59.1428292,22.5371748 59.5528821,22.9474944 60.0115382,23.2962511 C60.7768154,23.8746628 61.6568617,24.276678 62.590472,24.4743375 C63.4692996,24.6751174 64.3742495,24.7303787 65.2704033,24.6379889 C66.0853414,24.5390419 66.8838768,24.3312451 67.6453424,24.0199763 C67.7601437,23.9886063 67.8352924,23.8768292 67.8223379,23.7567111 L67.8223379,20.4968981 L67.8223379,20.4968981 C67.8223379,20.2936044 67.7943386,20.2692092 67.5883439,20.2681927 L65.983385,20.2681927 L65.983385,20.2681927 C65.7273916,20.2681927 65.4713982,20.2681927 65.2154047,20.2590445 C64.8017323,20.2228213 64.4626324,19.9105603 64.386426,19.495677 C64.3701998,19.3710054 64.3625148,19.2453384 64.3634266,19.1195839 L64.3634266,16.3802025 L64.3634266,16.3802025 C64.3634266,16.2785557 64.4074255,16.2165511 64.5164227,16.218584 L72.5422169,16.218584 C72.6422143,16.2135017 72.733212,16.2226499 72.8652086,16.2297652 L72.8652086,26.1088182 L72.8652086,26.1088182 C72.8762035,26.3053889 72.7745174,26.4907301 72.6042153,26.5845252 C71.9523503,27.0501816 71.2582153,27.4514762 70.5312684,27.782941 C70.1312787,27.9598065 69.7182893,28.1163426 69.3022999,28.2555987 C68.4353873,28.5642291 67.5359869,28.7689086 66.6223687,28.8654795 C66.1223815,28.9244347 65.6223943,28.9671263 65.1164073,28.9823733 C64.3105419,29.024071 63.5026186,28.9917517 62.7024692,28.8858089 C62.202482,28.8116067 61.6904951,28.7465528 61.1905079,28.6489718 L60.8545906,28.5675414 L60.8545906,28.5675414 L60.1905336,28.371476 L60.1905336,28.371476 C59.3289504,28.1257735 58.4973815,27.7820675 57.7115971,27.3468762 C55.6403541,26.2578702 53.9524851,24.5425165 52.880721,22.4373356 C52.4600072,21.6230675 52.1402425,20.7589149 51.9287454,19.8646549 C51.8007487,19.3147457 51.7137509,18.7597542 51.633753,18.1986638 C51.5441208,17.3612934 51.521613,16.5178793 51.5667547,15.6768066 C51.5948851,15.2226329 51.6493113,14.770538 51.7297505,14.3228711 C51.7597498,14.105347 51.8047486,13.8898557 51.8427476,13.6743645 C51.9804179,12.9405838 52.1932376,12.2234583 52.4777313,11.5346993 C53.1575741,9.81222513 54.2524196,8.29107 55.6616497,7.11103031 C56.4810917,6.42761425 57.3897004,5.86285278 58.3615805,5.43284156 C58.8642726,5.19663943 59.3870859,5.0074725 59.9235404,4.86768532 C60.4235276,4.74469269 60.9235148,4.59628835 61.4315018,4.5058227 C61.958287,4.41299312 62.4897716,4.3502127 63.0234609,4.31777611 C63.8589828,4.25151992 64.6986721,4.26172565 65.5323966,4.34827015 Z M47.0658701,11.7014 L47.0658701,28.9976204 L42,28.9976204 L42,11.7014 L47.0658701,11.7014 Z M120,4.43975227 L120,9.02097377 L113.308,9.02 L113.308172,28.7780633 L107.738314,28.7780633 L107.738,9.02 L101.004487,9.02097377 L101.004487,4.43975227 L120,4.43975227 Z M88.8187995,4.04332973 C89.606547,4.10883964 90.3856051,4.25632186 91.1437399,4.4834604 C92.3930406,4.84442084 93.578319,5.40395254 94.6556499,6.14131979 C96.4281947,7.3449618 97.8552684,9.0046079 98.7915438,10.9512466 C99.1512675,11.6908008 99.4244584,12.470672 99.6055229,13.2748926 C99.7295198,13.8410653 99.7775185,14.422485 99.8485167,15.0028882 C99.9308415,15.9277373 99.9548899,16.8569917 99.9205149,17.7849613 C99.9088274,18.098176 99.8463209,18.4072772 99.7355196,18.6997825 C99.7068266,18.8197653 99.5925838,18.8974777 99.4725263,18.8786809 C99.172534,18.8654668 98.8725417,18.8471704 98.5665496,18.8471704 C97.5045768,18.8471704 96.442604,18.861401 95.3806313,18.8603845 C94.7996462,18.8603845 94.2186611,18.8370057 93.637676,18.828874 C93.5370184,18.8275709 93.4364948,18.8367672 93.3376836,18.8563186 C93.2440882,18.8657222 93.1727458,18.945713 93.1726879,19.0413158 C93.2931226,19.1358977 93.4395966,19.1899103 93.5916771,19.195819 C95.2158529,19.3165235 96.8462032,19.325353 98.471552,19.2222471 C98.7715443,19.2019178 99.0715366,19.1988684 99.3775288,19.1917531 C99.4527455,19.1960279 99.5275855,19.2055372 99.601523,19.2202142 C99.5685239,19.4041949 99.5535243,19.5678463 99.5105254,19.7284482 C99.1468287,21.1141592 98.5110924,22.4107525 97.6415733,23.5402034 C97.6225738,23.5645986 97.6005743,23.5879774 97.5835748,23.6133891 C97.4341781,23.8314541 97.1720959,23.9391327 96.9155919,23.8878355 C96.4286044,23.8522591 95.9396169,23.8492097 95.4516294,23.8400615 C95.2728888,23.8242639 95.1046415,23.927864 95.0356401,24.0962114 C95.1131934,24.2042863 95.2404632,24.2635804 95.3716315,24.2527475 C95.6816235,24.2639287 95.9916156,24.2669781 96.3016077,24.2710439 L96.9545909,24.2710439 L96.9545909,24.2710439 C96.9400554,24.3274498 96.9171246,24.3812662 96.8865927,24.4306294 C96.4386041,24.8982047 95.9936155,25.3698459 95.5326274,25.8242071 C95.3698419,25.9694803 95.192935,26.0975373 95.0046409,26.2063991 C94.8506449,26.3080459 94.7866465,26.2643378 94.7716469,26.0752747 C94.7377098,25.5482671 94.595309,25.0343716 94.3536576,24.5668361 C94.0923448,24.0872947 93.6710086,23.7184931 93.1656881,23.5269893 C92.9526935,23.4385566 92.7286993,23.3796014 92.5097049,23.3074322 C92.3883359,23.2618611 92.2815013,23.1834887 92.2007128,23.0807598 C92.271711,22.9974095 92.3447091,22.9089767 92.4217071,22.822577 C92.6921284,22.5412905 92.9193368,22.2202138 93.0956899,21.8701464 C93.3497076,21.35916 93.3114362,20.7483888 92.9956924,20.2742916 C92.8106221,19.9846058 92.5957512,19.7157611 92.3547089,19.4722983 C92.171031,19.2913545 92.0770474,19.0361001 92.0987154,18.7770341 C92.115715,18.1874826 92.0917156,17.5969147 92.0817159,17.0073632 C92.0817159,16.8040696 92.0647163,16.600776 92.0627163,16.3974824 C92.0598694,16.1197167 92.1497609,15.8491772 92.3177098,15.630049 C92.862865,14.9149604 93.4648729,14.2465887 94.1176636,13.6316728 C94.2636599,13.4903838 94.4056563,13.3460453 94.5426528,13.1966245 C94.6036512,13.1295376 94.6816492,13.054319 94.6356504,12.9475899 C94.5846512,12.845833 94.4743414,12.7897684 94.3636573,12.8093502 L91.063742,12.8591571 L90.8997462,12.8469595 C90.8237481,12.6436659 90.75175,12.4403723 90.6777519,12.2472434 C90.52188,11.7811201 90.2059003,11.3877507 89.7877747,11.1392932 C89.5692039,11.0076609 89.3306237,10.9138838 89.0817928,10.8617974 C88.9317966,10.8333363 88.7818005,10.7845458 88.5968052,10.7347389 C88.7158022,10.5964993 88.8147996,10.4806219 88.915797,10.3667775 C89.0167944,10.2529331 89.0987923,10.1736485 89.1847901,10.0730182 C89.4875787,9.71314941 89.574484,9.21463896 89.4117843,8.77092263 C89.2292356,8.17929312 88.7418334,7.737339 88.1428169,7.6202808 C87.4652283,7.40423427 86.7268301,7.53122016 86.1568678,7.96181407 C85.7038154,8.28692923 85.4517715,8.82981318 85.4928848,9.39198461 C85.5026434,9.60684335 85.5841162,9.8119132 85.7238789,9.97340434 C85.8678752,10.1472204 86.029871,10.3057894 86.1818671,10.4735066 C86.2368657,10.5344947 86.2818646,10.6005651 86.3588626,10.6920472 C86.1988667,10.7611671 86.0728699,10.8099575 85.9498731,10.8689127 C85.7348786,10.9705595 85.5148842,11.0722063 85.3098895,11.193166 C84.8938763,11.4654369 84.5978283,11.8909665 84.4839107,12.3804007 C84.2472491,13.2147808 84.1792176,14.0892274 84.2839158,14.9510484 C84.2823398,15.087129 84.3375719,15.217514 84.4359119,15.3098616 C84.5609087,15.2712358 84.5739084,15.1645067 84.5959078,15.0547281 C84.6653336,14.6671955 84.6958229,14.2734926 84.6869055,13.8796911 C84.6869055,13.6763974 84.6869055,13.4731038 84.6969052,13.2698102 C84.7157457,12.7170462 84.9038163,12.1840369 85.2348914,11.7451081 C85.3987077,11.5230586 85.6316998,11.3639742 85.8958745,11.2937963 C86.0960467,11.2384665 86.2919111,11.1681377 86.4818594,11.0833874 C86.6184077,11.0222107 86.7144596,10.8940148 86.7361882,10.7439471 C86.7579169,10.5938793 86.7022744,10.4429888 86.5888567,10.3444152 C86.5278397,10.2857676 86.4607884,10.2339681 86.3888618,10.189912 C85.9364214,9.92953433 85.7439234,9.36860475 85.9388734,8.87866825 C86.0381453,8.48071845 86.3364971,8.16546912 86.7238532,8.04923032 C87.0580341,7.92762503 87.4159619,7.88894179 87.7678265,7.93640236 C88.1062542,7.96898841 88.4286854,8.09832609 88.6978026,8.30944614 C89.1030261,8.66548165 89.2398046,9.24451964 89.0377939,9.7487649 C88.9794665,9.86768307 88.8977893,9.97319331 88.7978001,10.0587877 C88.7098023,10.1451874 88.5978052,10.2051591 88.4978077,10.28546 C88.4314269,10.3392283 88.3731442,10.4025818 88.3248122,10.4735066 C88.2447585,10.5579527 88.2126091,10.6780723 88.2395409,10.7921049 C88.2664728,10.9061374 88.3487653,10.9983296 88.4578088,11.0366299 C88.5993005,11.114636 88.7522712,11.16887 88.9107972,11.1972319 C89.6788037,11.3036054 90.2935709,11.8977996 90.436758,12.672127 C90.4420279,12.7397857 90.4420279,12.8077619 90.436758,12.8754206 C90.3367606,12.8815194 90.2467629,12.8906676 90.1567652,12.8916841 C89.6377785,12.8916841 89.1177919,12.9008323 88.5988052,12.8916841 C88.3807137,12.8923046 88.1709609,12.9769358 88.0118202,13.1285212 C87.7978257,13.3104689 87.5888311,13.4974991 87.3798364,13.6855457 C86.6658547,14.326937 85.9558729,14.9703613 85.2408913,15.6097197 C84.9328992,15.8851825 84.6129074,16.1453983 84.3079152,16.4228941 C84.0625813,16.6289538 83.8631738,16.8857028 83.7229302,17.1760969 C83.7200135,17.1959775 83.7200135,17.2161879 83.7229302,17.2360686 C83.8098825,17.2864082 83.9190921,17.2723247 83.9909233,17.2015086 C84.2279172,17.0124456 84.4649112,16.8233825 84.6969052,16.6272042 C84.821902,16.5255574 84.9338991,16.4005318 85.054896,16.2897368 C85.1088946,16.2399299 85.171893,16.1992711 85.2648906,16.1291348 C85.2978898,16.616023 85.3268891,17.0581866 85.3568883,17.5013667 C85.1799299,17.5452157 85.0056384,17.5995195 84.8349017,17.6640016 C84.586908,17.7737802 84.5249096,17.777846 84.6229071,18.0543253 C84.7088046,18.0563375 84.7947263,18.0515797 84.8799005,18.0400948 C85.1798928,17.9791067 85.4678854,17.9069375 85.7638778,17.8449329 C86.528805,17.6776093 87.325261,17.9120857 87.8838235,18.4690443 C88.1018179,18.6723379 88.2898131,18.9020597 88.489808,19.1216168 C88.5239878,19.1532242 88.5497813,19.1930769 88.564806,19.2374941 C88.6398041,19.5902086 88.7138022,19.942923 88.7788005,20.2976703 C88.8610319,20.8411935 88.7196329,21.3951651 88.3878106,21.8294877 C88.2366423,22.0283142 88.0693983,22.2139569 87.8878234,22.3844792 C87.7698264,22.5084883 87.6348299,22.6172504 87.5188329,22.7432924 C87.0898439,23.2108678 87.3128381,23.6814925 87.8688239,23.839045 C88.2768134,23.9549224 88.6878029,24.0707997 89.0827927,24.2242864 C89.8064626,24.5143621 90.3766463,25.1005912 90.6537525,25.8394541 C90.7908677,26.1958427 90.8992225,26.562983 90.9777442,26.9372396 C91.063742,27.2930034 91.0157432,27.6609649 91.1277403,28.0075805 C91.1334032,28.0470138 91.1334032,28.0870739 91.1277403,28.1265072 C90.963004,28.2194812 90.7790435,28.2717144 90.5907541,28.2789774 C90.4986643,28.2849209 90.4074732,28.3009381 90.3187611,28.3267514 C90.2657624,28.3379326 90.2187636,28.3592784 90.1617651,28.3674102 C89.9407707,28.4019701 89.7197764,28.4436453 89.4967821,28.4639746 C88.9634625,28.5114098 88.4301428,28.5520685 87.8968232,28.5859508 C87.6568293,28.6011978 87.6258301,28.549358 87.5638317,28.323702 C87.4070378,27.6426343 87.1523046,26.9887897 86.8078511,26.3832645 C86.336477,25.639275 85.6813592,25.0339857 84.9078998,24.6278242 C84.421182,24.3673941 83.9026921,24.1735986 83.3659393,24.0514868 C83.1109459,23.9915152 82.8479526,23.9681364 82.5899592,23.9203625 C82.343523,23.8898925 82.1121659,23.7834793 81.9269762,23.615422 C81.7479808,23.4375401 81.740981,23.3165804 81.9269762,23.1366656 C82.0509357,23.0182958 82.182924,22.9089256 82.3219661,22.8093629 C82.8844292,22.4156654 83.3660541,21.9143579 83.7399297,21.3334513 C84.1689975,20.6667529 84.3099853,19.8502346 84.1299197,19.0748593 C83.9914589,18.5181862 83.7745544,17.9847838 83.4859363,17.491202 C83.2025134,17.0289591 82.8113026,16.6449119 82.3469655,16.3730872 C81.9339451,16.0968503 81.482174,15.885745 81.0069998,15.7469429 C80.5109623,15.5944974 79.9962184,15.5140789 79.478039,15.5080729 C79.0058565,15.4958885 78.5339157,15.5405855 78.0720751,15.6412302 C77.4770706,15.7818139 76.9155213,16.0413052 76.4201174,16.4045977 C76.2581216,16.5245409 76.0971257,16.64855 75.9341299,16.7674768 C75.8749585,16.8052524 75.8135051,16.8392018 75.7501346,16.8691236 C75.7352758,16.7929094 75.7249242,16.7158585 75.7191354,16.6383853 L75.7191354,15.2214289 L75.7191354,15.2214289 C75.7279829,15.0962862 75.745695,14.9719548 75.772134,14.8494016 C75.7791339,14.802644 75.7971334,14.7579194 75.8031333,14.7111619 C75.8431322,14.4062215 75.8761314,14.1063634 75.9221302,13.8065054 C75.9493766,13.6369665 75.9867785,13.4692762 76.0341273,13.3043701 C76.374343,12.0481064 76.8942095,10.8494387 77.5770878,9.74673196 C78.2770744,8.62969091 79.1410448,7.62806667 80.1390221,6.77661232 C80.9881318,6.04335561 81.9424464,5.44624038 82.9689495,5.00592498 C83.838159,4.63873313 84.7431839,4.3661546 85.6688803,4.19275054 C86.7079599,4.00361347 87.7669072,3.95338083 88.8187995,4.04332973 Z M79.5510372,15.8516391 C79.6740821,15.8607059 79.7963676,15.8783664 79.9170278,15.9044954 C79.9780262,15.9146601 80.0380247,15.9360059 80.0990231,15.9421047 C80.8224115,16.0334503 81.5137139,16.2997531 82.1149714,16.7186863 C82.5717892,17.0037586 82.9695352,17.3766458 83.2859414,17.8164718 C83.4749835,18.1009566 83.6165482,18.4152006 83.7049306,18.7465401 C83.8190215,19.1569131 83.8395412,19.58833 83.7649291,20.0079769 C83.6510735,21.0080459 83.0844809,21.896765 82.2329684,22.4109074 C82.0729725,22.5054389 81.9159765,22.6081022 81.7649804,22.7158478 C81.5126769,22.8865184 81.3795638,23.1895783 81.4229892,23.4944623 C81.445366,23.821535 81.6798454,24.0931591 81.9959745,24.158216 C82.3789646,24.253764 82.7599549,24.3615096 83.1489449,24.4265635 C84.3480091,24.60158 85.4403289,25.2232236 86.2138663,26.1708227 C86.6375471,26.673282 86.9396016,27.2696014 87.0958437,27.9120325 C87.1438425,28.1204084 87.201841,28.323702 87.2538396,28.5412262 C87.0861814,28.5955777 86.9066337,28.5994608 86.7368529,28.5524074 C86.5838568,28.5290286 86.4298608,28.5137816 86.2778647,28.4863369 C85.967206,28.43077 85.6568806,28.3721537 85.3468885,28.310488 C85.1588934,28.2728786 84.9718982,28.2291705 84.7859029,28.182413 C84.5409092,28.1214249 84.2929156,28.0665356 84.0529217,27.9872511 C83.652932,27.8551103 83.2439425,27.7260188 82.8529525,27.561351 C82.0399194,27.2126418 81.277558,26.7526733 80.5870106,26.1942015 C79.8221436,25.5656445 79.1075831,24.876346 78.4500654,24.1328043 C78.0485597,23.6637592 77.7012996,23.1494543 77.4150919,22.5999705 C77.0096414,21.8868234 76.6589423,21.1429316 76.3661188,20.3749219 C76.2291223,20.0100099 76.123125,19.6339167 76.009128,19.256807 C75.9412591,19.0421153 75.884516,18.8239526 75.8391323,18.6032181 C75.8256294,18.5046815 75.8174125,18.405508 75.8145062,18.3061374 L75.814133,17.7788625 L75.814133,17.7788625 C75.8068845,17.4850446 75.9389554,17.2055792 76.1691239,17.0276926 C76.5611304,16.6817402 77.0086062,16.4066948 77.4920899,16.2145182 C77.8229922,16.0881406 78.1648086,15.993535 78.5130638,15.93194 C78.8554732,15.869403 79.2032608,15.842497 79.5510372,15.8516391 Z M87.6138304,14.4438006 C89.2137894,14.4512849 90.8104151,14.4604331 92.4037076,14.4712755 C92.503705,14.4712755 92.5957027,14.4905884 92.7176995,14.502786 C92.6287018,14.7233595 92.5607036,14.9225873 92.3587088,15.01102 C92.0065796,15.1629886 91.7765,15.5126031 91.7727238,15.901446 L91.7598504,16.1253862 L91.7598504,16.1253862 L91.7597241,19.0626616 L91.7597241,19.0626616 C91.65915,19.059612 91.5589084,19.0494225 91.4597318,19.0321676 C91.0476184,18.9152912 90.6098641,18.9323509 90.2077639,19.0809581 C90.1150519,19.120304 90.0305515,19.1772219 89.9587703,19.2486753 C89.8587729,19.3432068 89.8857722,19.4519689 90.0187687,19.465183 C90.1495471,19.4741943 90.2809217,19.4663389 90.4097587,19.4418042 C90.7599717,19.3746911 91.1170833,19.3524943 91.4727315,19.3757338 C91.8632013,19.4201769 92.215378,19.6349683 92.4377067,19.9642688 C92.6230529,20.1964627 92.7561635,20.4670749 92.8276967,20.7571139 C92.9784791,21.2737021 92.8435537,21.8327958 92.4747058,22.2198114 C92.3217097,22.375331 92.1747135,22.5339 92.0247173,22.6965349 C91.9131365,22.7870429 91.8440755,22.9210211 91.8343778,23.065793 C91.8246801,23.2105648 91.8752373,23.3528223 91.9737186,23.4578695 C92.0749466,23.5525165 92.2023782,23.613202 92.3387093,23.6316855 C92.7327536,23.7040278 93.1097335,23.8516504 93.4496808,24.0667339 C93.7722738,24.3002726 94.0165979,24.6288096 94.1496628,25.0079833 C94.2780662,25.4167363 94.3763356,25.8346446 94.4436553,26.258239 C94.4905316,26.4119643 94.4348482,26.5788988 94.3056588,26.6719415 C93.9203699,26.9880445 93.4977827,27.2540423 93.0476911,27.4637701 C92.6807005,27.6447014 92.2977103,27.7941222 91.9147201,27.9384607 C91.7758406,27.9724842 91.633583,27.9902186 91.490731,27.991317 C91.450732,27.7280518 91.4197328,27.4891818 91.3767339,27.2523447 C91.3217353,26.9535031 91.2537371,26.6577109 91.1957386,26.3598858 C91.1262698,26.0395782 91.0156574,25.7299495 90.866747,25.4389657 C90.516015,24.6539813 89.8489536,24.0611385 89.0367939,23.8126168 L87.9768211,23.5005611 L87.9768211,23.5005611 C87.8775119,23.4623586 87.7803651,23.4185832 87.6858286,23.3694368 C87.6912188,23.166179 87.7783175,22.9740463 87.9268224,22.837824 C88.0060913,22.762845 88.089562,22.6925913 88.176816,22.6274151 C88.6531326,22.2420799 88.9780503,21.6961856 89.0927925,21.0884825 C89.1526017,20.8122192 89.179461,20.5296393 89.1727904,20.2468469 C89.1840386,19.8270118 89.0550297,19.4156867 88.8067998,19.0799416 C88.7383301,18.9753352 88.6771809,18.8659646 88.6238045,18.7526389 C88.390273,18.3788128 88.0671864,18.0713822 87.6848286,17.8591635 C87.6328299,17.82562 87.5848312,17.7900436 87.5278326,17.7575167 C87.4101148,17.6920092 87.3414979,17.5620773 87.3528371,17.4261481 C87.3528371,16.520475 87.3448373,15.6158185 87.3438373,14.7111619 C87.3438373,14.4661931 87.3688367,14.4428144 87.6138304,14.4438006 Z M86.9198482,14.6156139 C86.9914639,15.5589827 86.9974787,16.5063135 86.9378477,17.4505433 L86.537858,17.4505433 C86.3208636,17.4505433 86.1038691,17.4505433 85.8868747,17.4413951 C85.7248788,17.4332634 85.6978795,17.4048023 85.6948796,17.2381015 C85.6875465,16.7583286 85.6848799,16.2785557 85.6868798,15.7987827 C85.6881054,15.7299192 85.7144809,15.6639797 85.7608779,15.6137855 C86.0868696,15.3088451 86.4188611,15.0171188 86.7518525,14.7233595 C86.8051305,14.6832377 86.8612857,14.6472221 86.9198482,14.6156139 Z M93.9376683,13.182394 C93.9019763,13.2643852 93.85914,13.3429664 93.8096715,13.4171981 C93.6370093,13.6286234 93.4593472,13.8359829 93.2766852,14.0392765 C93.2371736,14.0748523 93.188045,14.0975197 93.1356888,14.1043305 C93.0741516,14.1100379 93.0122308,14.1100379 92.9506936,14.1043305 L87.5568319,14.1043305 C87.57136,14.0427678 87.5935377,13.9833351 87.6228302,13.9274651 C87.8959636,13.5355563 88.3326727,13.2948222 88.8047999,13.275909 C89.5094485,13.2603232 90.2140971,13.2420268 90.9187457,13.2210198 C91.7777236,13.1966245 92.6377016,13.1681634 93.4966796,13.1447847 C93.6446604,13.1265948 93.794738,13.1393941 93.9376683,13.182394 Z" id="Combined-Shape" fill="#373434"></path>
                    </g>
                    <path d="M137.015444,29 L137.015444,18.46425 L138.422444,18.46425 C138.947278,18.46425 139.354861,18.5284583 139.645194,18.656875 C139.935528,18.7852917 140.186778,19.00025 140.398944,19.30175 L140.398944,19.30175 L146.646694,28.04525 C146.747194,28.2015833 146.853278,28.338375 146.964944,28.455625 C147.076611,28.572875 147.210611,28.6705833 147.366944,28.74875 C147.523278,28.8269167 147.704736,28.8883333 147.911319,28.933 C148.117903,28.9776667 148.366361,29 148.656694,29 L148.656694,29 L153.128944,29 L145.189444,17.66025 C144.899111,17.2470833 144.597611,16.914875 144.284944,16.663625 C143.972278,16.412375 143.620528,16.2085833 143.229694,16.05225 C143.765694,15.7730833 144.284944,15.3096667 144.787444,14.662 L144.787444,14.662 L152.525944,4.69575 L148.170944,4.69575 C147.668444,4.69575 147.244111,4.771125 146.897944,4.921875 C146.551778,5.072625 146.233528,5.34341667 145.943194,5.73425 L145.943194,5.73425 L139.795944,13.9585 C139.427444,14.4721667 138.830028,14.729 138.003694,14.729 L138.003694,14.729 L137.015444,14.729 L137.015444,4.69575 L131.990444,4.69575 L131.990444,29 L137.015444,29 Z M157.059611,29 C157.483944,29 157.835694,28.8855417 158.114861,28.656625 C158.394028,28.4277083 158.589444,28.1736667 158.701111,27.8945 L158.701111,27.8945 L160.342611,23.25475 L170.024111,23.25475 L171.665611,27.8945 C171.799611,28.2183333 172.003403,28.4835417 172.276986,28.690125 C172.550569,28.8967083 172.905111,29 173.340611,29 L173.340611,29 L177.243361,29 L167.762861,4.69575 L162.620611,4.69575 L153.123361,29 L157.059611,29 Z M168.801361,19.77075 L161.582111,19.77075 L164.195111,12.36725 C164.351444,11.9764167 164.516153,11.5157917 164.689236,10.985375 C164.862319,10.4549583 165.027028,9.87708333 165.183361,9.25175 C165.339694,9.86591667 165.504403,10.4354167 165.677486,10.96025 C165.850569,11.4850833 166.015278,11.9429167 166.171611,12.33375 L166.171611,12.33375 L168.801361,19.77075 Z M185.210778,29 L185.210778,19.73725 L186.919278,19.73725 C187.365944,19.73725 187.703736,19.80425 187.932653,19.93825 C188.161569,20.07225 188.370944,20.2844167 188.560778,20.57475 L188.560778,20.57475 L193.183778,28.0285 C193.563444,28.6761667 194.177611,29 195.026278,29 L195.026278,29 L199.565528,29 L193.904028,20.2565 C193.680694,19.9103333 193.429444,19.611625 193.150278,19.360375 C192.871111,19.109125 192.569611,18.8941667 192.245778,18.7155 C193.060944,18.4363333 193.786778,18.0678333 194.423278,17.61 C195.059778,17.1521667 195.595778,16.6273333 196.031278,16.0355 C196.466778,15.4436667 196.798986,14.787625 197.027903,14.067375 C197.256819,13.347125 197.371278,12.585 197.371278,11.781 C197.371278,10.7425 197.192611,9.79054167 196.835278,8.925125 C196.477944,8.05970833 195.914028,7.31433333 195.143528,6.689 C194.373028,6.06366667 193.384778,5.575125 192.178778,5.223375 C190.972778,4.871625 189.521111,4.69575 187.823778,4.69575 L187.823778,4.69575 L180.185778,4.69575 L180.185778,29 L185.210778,29 Z M187.790278,16.203 L185.210778,16.203 L185.210778,8.51475 L187.823778,8.51475 C189.387111,8.51475 190.551236,8.833 191.316153,9.4695 C192.081069,10.106 192.463528,10.9993333 192.463528,12.1495 C192.463528,12.7301667 192.374194,13.2661667 192.195528,13.7575 C192.016861,14.2488333 191.737694,14.6759583 191.358028,15.038875 C190.978361,15.4017917 190.492611,15.6865417 189.900778,15.893125 C189.308944,16.0997083 188.605444,16.203 187.790278,16.203 L187.790278,16.203 Z M207.080694,29 L207.080694,14.07575 C207.080694,13.7630833 207.069528,13.4252917 207.047194,13.062375 C207.024861,12.6994583 206.996944,12.3225833 206.963444,11.93175 L206.963444,11.93175 L213.948194,25.16425 C214.126861,25.5215833 214.366944,25.792375 214.668444,25.976625 C214.969944,26.160875 215.316111,26.253 215.706944,26.253 L215.706944,26.253 L216.410444,26.253 C217.203278,26.253 217.789528,25.8900833 218.169194,25.16425 L218.169194,25.16425 L225.120444,11.982 C225.075778,12.3505 225.045069,12.7134167 225.028319,13.07075 C225.011569,13.4280833 225.003194,13.7630833 225.003194,14.07575 L225.003194,14.07575 L225.003194,29 L229.441944,29 L229.441944,4.69575 L225.622944,4.69575 C225.399611,4.69575 225.206986,4.70133333 225.045069,4.7125 C224.883153,4.72366667 224.737986,4.754375 224.609569,4.804625 C224.481153,4.854875 224.361111,4.93304167 224.249444,5.039125 C224.137778,5.14520833 224.031694,5.29316667 223.931194,5.483 L223.931194,5.483 L217.180944,18.39725 C216.968778,18.7880833 216.770569,19.1956667 216.586319,19.62 C216.402069,20.0443333 216.226194,20.4798333 216.058694,20.9265 C215.891194,20.491 215.715319,20.0666667 215.531069,19.6535 C215.346819,19.2403333 215.148611,18.8383333 214.936444,18.4475 L214.936444,18.4475 L208.135944,5.483 C208.035444,5.29316667 207.932153,5.14520833 207.826069,5.039125 C207.719986,4.93304167 207.602736,4.854875 207.474319,4.804625 C207.345903,4.754375 207.197944,4.72366667 207.030444,4.7125 C206.862944,4.70133333 206.673111,4.69575 206.460944,4.69575 L206.460944,4.69575 L202.641944,4.69575 L202.641944,29 L207.080694,29 Z M236.303861,29 C236.728194,29 237.079944,28.8855417 237.359111,28.656625 C237.638278,28.4277083 237.833694,28.1736667 237.945361,27.8945 L237.945361,27.8945 L239.586861,23.25475 L249.268361,23.25475 L250.909861,27.8945 C251.043861,28.2183333 251.247653,28.4835417 251.521236,28.690125 C251.794819,28.8967083 252.149361,29 252.584861,29 L252.584861,29 L256.487611,29 L247.007111,4.69575 L241.864861,4.69575 L232.367611,29 L236.303861,29 Z M248.045611,19.77075 L240.826361,19.77075 L243.439361,12.36725 C243.595694,11.9764167 243.760403,11.5157917 243.933486,10.985375 C244.106569,10.4549583 244.271278,9.87708333 244.427611,9.25175 C244.583944,9.86591667 244.748653,10.4354167 244.921736,10.96025 C245.094819,11.4850833 245.259528,11.9429167 245.415861,12.33375 L245.415861,12.33375 L248.045611,19.77075 Z M267.838528,29 L267.838528,19.6535 L276.665778,4.69575 L272.210278,4.69575 C271.785944,4.69575 271.439778,4.813 271.171778,5.0475 C270.903778,5.282 270.702778,5.53325 270.568778,5.80125 L270.568778,5.80125 L266.615778,13.456 C266.358944,13.9585 266.127236,14.435875 265.920653,14.888125 C265.714069,15.340375 265.532611,15.7898333 265.376278,16.2365 C265.208778,15.7898333 265.016153,15.3431667 264.798403,14.8965 C264.580653,14.4498333 264.337778,13.9696667 264.069778,13.456 L264.069778,13.456 L260.083278,5.80125 C259.926944,5.47741667 259.717569,5.21220833 259.455153,5.005625 C259.192736,4.79904167 258.843778,4.69575 258.408278,4.69575 L258.408278,4.69575 L253.986278,4.69575 L262.813528,19.6535 L262.813528,29 L267.838528,29 Z M289.155694,29.268 C291.020528,29.268 292.717861,28.9525417 294.247694,28.321625 C295.777528,27.6907083 297.086819,26.8225 298.175569,25.717 C299.264319,24.6115 300.107403,23.2994167 300.704819,21.78075 C301.302236,20.2620833 301.600944,18.615 301.600944,16.8395 C301.600944,15.0751667 301.302236,13.4364583 300.704819,11.923375 C300.107403,10.4102917 299.264319,9.09820833 298.175569,7.987125 C297.086819,6.87604167 295.777528,6.00504167 294.247694,5.374125 C292.717861,4.74320833 291.020528,4.42775 289.155694,4.42775 C287.290861,4.42775 285.593528,4.74320833 284.063694,5.374125 C282.533861,6.00504167 281.221778,6.87325 280.127444,7.97875 C279.033111,9.08425 278.187236,10.3935417 277.589819,11.906625 C276.992403,13.4197083 276.693694,15.064 276.693694,16.8395 C276.693694,18.615 276.992403,20.2620833 277.589819,21.78075 C278.187236,23.2994167 279.033111,24.6115 280.127444,25.717 C281.221778,26.8225 282.533861,27.6907083 284.063694,28.321625 C285.593528,28.9525417 287.290861,29.268 289.155694,29.268 Z M289.155694,25.03025 C288.016694,25.03025 286.994944,24.8432083 286.090444,24.469125 C285.185944,24.0950417 284.418236,23.55625 283.787319,22.85275 C283.156403,22.14925 282.673444,21.2922083 282.338444,20.281625 C282.003444,19.2710417 281.835944,18.1236667 281.835944,16.8395 C281.835944,15.5665 282.003444,14.4247083 282.338444,13.414125 C282.673444,12.4035417 283.156403,11.5437083 283.787319,10.834625 C284.418236,10.1255417 285.185944,9.58395833 286.090444,9.209875 C286.994944,8.83579167 288.016694,8.64875 289.155694,8.64875 C290.294694,8.64875 291.313653,8.83579167 292.212569,9.209875 C293.111486,9.58395833 293.876403,10.1255417 294.507319,10.834625 C295.138236,11.5437083 295.621194,12.4035417 295.956194,13.414125 C296.291194,14.4247083 296.458694,15.5665 296.458694,16.8395 C296.458694,18.1236667 296.291194,19.2710417 295.956194,20.281625 C295.621194,21.2922083 295.138236,22.14925 294.507319,22.85275 C293.876403,23.55625 293.111486,24.0950417 292.212569,24.469125 C291.313653,24.8432083 290.294694,25.03025 289.155694,25.03025 Z M317.742361,29.268 C319.305694,29.268 320.788069,29.058625 322.189486,28.639875 C323.590903,28.221125 324.911361,27.5595 326.150861,26.655 L326.150861,26.655 L326.150861,16.62175 L317.809361,16.62175 L317.809361,19.419 C317.809361,19.687 317.901486,19.9075417 318.085736,20.080625 C318.269986,20.2537083 318.524028,20.34025 318.847861,20.34025 L318.847861,20.34025 L321.594861,20.34025 L321.594861,24.42725 C320.991861,24.7064167 320.374903,24.9269583 319.743986,25.088875 C319.113069,25.2507917 318.395611,25.33175 317.591611,25.33175 C316.407944,25.33175 315.333153,25.1419167 314.367236,24.76225 C313.401319,24.3825833 312.572194,23.8298333 311.879861,23.104 C311.187528,22.3781667 310.651528,21.487625 310.271861,20.432375 C309.892194,19.377125 309.702361,18.1795 309.702361,16.8395 C309.702361,15.6 309.875444,14.47775 310.221611,13.47275 C310.567778,12.46775 311.061903,11.6079167 311.703986,10.89325 C312.346069,10.1785833 313.124944,9.62583333 314.040611,9.235 C314.956278,8.84416667 315.978028,8.64875 317.105861,8.64875 C317.775861,8.64875 318.367694,8.68783333 318.881361,8.766 C319.395028,8.84416667 319.869611,8.95583333 320.305111,9.101 C320.740611,9.24616667 321.150986,9.41645833 321.536236,9.611875 C321.921486,9.80729167 322.315111,10.0278333 322.717111,10.2735 C323.141444,10.5303333 323.532278,10.6196667 323.889611,10.5415 C324.246944,10.4633333 324.537278,10.2455833 324.760611,9.88825 L324.760611,9.88825 L326.217861,7.64375 C325.715361,7.17475 325.157028,6.74483333 324.542861,6.354 C323.928694,5.96316667 323.253111,5.625375 322.516111,5.340625 C321.779111,5.055875 320.975111,4.83254167 320.104111,4.670625 C319.233111,4.50870833 318.295111,4.42775 317.290111,4.42775 C315.347111,4.42775 313.591153,4.73483333 312.022236,5.349 C310.453319,5.96316667 309.116111,6.81741667 308.010611,7.91175 C306.905111,9.00608333 306.053653,10.3125833 305.456236,11.83125 C304.858819,13.3499167 304.560111,15.0193333 304.560111,16.8395 C304.560111,18.6373333 304.872778,20.2955833 305.498111,21.81425 C306.123444,23.3329167 307.011194,24.645 308.161361,25.7505 C309.311528,26.856 310.696194,27.718625 312.315361,28.338375 C313.934528,28.958125 315.743528,29.268 317.742361,29.268 Z M336.011028,29 L336.011028,4.69575 L330.952528,4.69575 L330.952528,29 L336.011028,29 Z" id="KARMAYOGI" fill="#373434" fill-rule="nonzero"></path>
                </g>
                <path d="M7.128,53 L7.128,45.38 L9.912,45.38 L9.912,44.402 L3.18,44.402 L3.18,45.38 L5.97,45.38 L5.97,53 L7.128,53 Z M12.204,53 L12.204,48.524 C12.436,48.264 12.689,48.058 12.963,47.906 C13.237,47.754 13.532,47.678 13.848,47.678 C14.276,47.678 14.595,47.805 14.805,48.059 C15.015,48.313 15.12,48.67 15.12,49.13 L15.12,49.13 L15.12,53 L16.194,53 L16.194,49.13 C16.194,48.786 16.15,48.472 16.062,48.188 C15.974,47.904 15.845,47.661 15.675,47.459 C15.505,47.257 15.293,47.101 15.039,46.991 C14.785,46.881 14.492,46.826 14.16,46.826 C13.748,46.826 13.384,46.908 13.068,47.072 C12.752,47.236 12.464,47.456 12.204,47.732 L12.204,47.732 L12.204,44.162 L11.13,44.162 L11.13,53 L12.204,53 Z M20.676,53.084 C20.896,53.084 21.118,53.065 21.342,53.027 C21.566,52.989 21.783,52.932 21.993,52.856 C22.203,52.78 22.4,52.683 22.584,52.565 C22.768,52.447 22.926,52.308 23.058,52.148 L23.058,52.148 L22.758,51.758 C22.71,51.69 22.642,51.656 22.554,51.656 C22.486,51.656 22.405,51.687 22.311,51.749 C22.217,51.811 22.1,51.878 21.96,51.95 C21.82,52.022 21.653,52.089 21.459,52.151 C21.265,52.213 21.034,52.244 20.766,52.244 C20.478,52.244 20.218,52.197 19.986,52.103 C19.754,52.009 19.554,51.867 19.386,51.677 C19.218,51.487 19.087,51.25 18.993,50.966 C18.899,50.682 18.846,50.348 18.834,49.964 L18.834,49.964 L22.896,49.964 C22.996,49.964 23.064,49.936 23.1,49.88 C23.136,49.824 23.154,49.712 23.154,49.544 C23.154,49.112 23.09,48.727 22.962,48.389 C22.834,48.051 22.657,47.767 22.431,47.537 C22.205,47.307 21.937,47.131 21.627,47.009 C21.317,46.887 20.98,46.826 20.616,46.826 C20.176,46.826 19.78,46.903 19.428,47.057 C19.076,47.211 18.778,47.423 18.534,47.693 C18.29,47.963 18.103,48.282 17.973,48.65 C17.843,49.018 17.778,49.414 17.778,49.838 C17.778,50.362 17.85,50.826 17.994,51.23 C18.138,51.634 18.339,51.973 18.597,52.247 C18.855,52.521 19.161,52.729 19.515,52.871 C19.869,53.013 20.256,53.084 20.676,53.084 Z M22.194,49.298 L18.87,49.298 C18.942,48.77 19.127,48.357 19.425,48.059 C19.723,47.761 20.128,47.612 20.64,47.612 C20.884,47.612 21.102,47.653 21.294,47.735 C21.486,47.817 21.649,47.933 21.783,48.083 C21.917,48.233 22.019,48.411 22.089,48.617 C22.159,48.823 22.194,49.05 22.194,49.298 L22.194,49.298 Z M29.406,53 L29.406,46.874 C29.406,46.79 29.404,46.7 29.4,46.604 C29.396,46.508 29.39,46.41 29.382,46.31 L29.382,46.31 L34.356,52.79 C34.416,52.866 34.477,52.92 34.539,52.952 C34.601,52.984 34.678,53 34.77,53 L34.77,53 L35.352,53 L35.352,44.402 L34.332,44.402 L34.332,50.492 C34.332,50.58 34.335,50.673 34.341,50.771 C34.347,50.869 34.354,50.97 34.362,51.074 L34.362,51.074 L29.388,44.6 C29.356,44.56 29.326,44.527 29.298,44.501 C29.27,44.475 29.242,44.455 29.214,44.441 C29.186,44.427 29.154,44.417 29.118,44.411 C29.082,44.405 29.038,44.402 28.986,44.402 L28.986,44.402 L28.386,44.402 L28.386,53 L29.406,53 Z M38.67,53.096 C38.902,53.096 39.113,53.075 39.303,53.033 C39.493,52.991 39.672,52.931 39.84,52.853 C40.008,52.775 40.168,52.679 40.32,52.565 C40.472,52.451 40.628,52.32 40.788,52.172 L40.788,52.172 L40.908,52.748 C40.94,52.848 40.984,52.915 41.04,52.949 C41.096,52.983 41.176,53 41.28,53 L41.28,53 L41.754,53 L41.754,49.112 C41.754,48.772 41.708,48.46 41.616,48.176 C41.524,47.892 41.388,47.65 41.208,47.45 C41.028,47.25 40.806,47.094 40.542,46.982 C40.278,46.87 39.976,46.814 39.636,46.814 C39.164,46.814 38.734,46.894 38.346,47.054 C37.958,47.214 37.596,47.456 37.26,47.78 L37.26,47.78 L37.452,48.122 C37.488,48.178 37.532,48.225 37.584,48.263 C37.636,48.301 37.698,48.32 37.77,48.32 C37.862,48.32 37.955,48.287 38.049,48.221 C38.143,48.155 38.255,48.081 38.385,47.999 C38.515,47.917 38.669,47.843 38.847,47.777 C39.025,47.711 39.246,47.678 39.51,47.678 C39.902,47.678 40.2,47.799 40.404,48.041 C40.608,48.283 40.71,48.64 40.71,49.112 L40.71,49.112 L40.71,49.586 C40.018,49.602 39.434,49.665 38.958,49.775 C38.482,49.885 38.096,50.026 37.8,50.198 C37.504,50.37 37.29,50.567 37.158,50.789 C37.026,51.011 36.96,51.242 36.96,51.482 C36.96,51.758 37.005,51.997 37.095,52.199 C37.185,52.401 37.307,52.568 37.461,52.7 C37.615,52.832 37.796,52.931 38.004,52.997 C38.212,53.063 38.434,53.096 38.67,53.096 Z M38.988,52.346 C38.848,52.346 38.717,52.329 38.595,52.295 C38.473,52.261 38.367,52.207 38.277,52.133 C38.187,52.059 38.116,51.964 38.064,51.848 C38.012,51.732 37.986,51.594 37.986,51.434 C37.986,51.266 38.035,51.114 38.133,50.978 C38.231,50.842 38.389,50.724 38.607,50.624 C38.825,50.524 39.107,50.443 39.453,50.381 C39.799,50.319 40.218,50.28 40.71,50.264 L40.71,50.264 L40.71,51.524 C40.59,51.652 40.467,51.766 40.341,51.866 C40.215,51.966 40.083,52.052 39.945,52.124 C39.807,52.196 39.66,52.251 39.504,52.289 C39.348,52.327 39.176,52.346 38.988,52.346 Z M48.738,45.722 C48.842,45.722 48.94,45.702 49.032,45.662 C49.124,45.622 49.205,45.568 49.275,45.5 C49.345,45.432 49.401,45.353 49.443,45.263 C49.485,45.173 49.506,45.076 49.506,44.972 C49.506,44.868 49.485,44.769 49.443,44.675 C49.401,44.581 49.345,44.499 49.275,44.429 C49.205,44.359 49.124,44.304 49.032,44.264 C48.94,44.224 48.842,44.204 48.738,44.204 C48.634,44.204 48.537,44.224 48.447,44.264 C48.357,44.304 48.278,44.359 48.21,44.429 C48.142,44.499 48.088,44.581 48.048,44.675 C48.008,44.769 47.988,44.868 47.988,44.972 C47.988,45.076 48.008,45.173 48.048,45.263 C48.088,45.353 48.142,45.432 48.21,45.5 C48.278,45.568 48.357,45.622 48.447,45.662 C48.537,45.702 48.634,45.722 48.738,45.722 Z M45.468,53.096 C45.744,53.096 46.012,53.047 46.272,52.949 C46.532,52.851 46.754,52.716 46.938,52.544 L46.938,52.544 L46.626,52.034 C46.582,51.966 46.532,51.932 46.476,51.932 C46.444,51.932 46.407,51.947 46.365,51.977 C46.323,52.007 46.272,52.04 46.212,52.076 C46.152,52.112 46.081,52.145 45.999,52.175 C45.917,52.205 45.82,52.22 45.708,52.22 C45.512,52.22 45.352,52.158 45.228,52.034 C45.104,51.91 45.042,51.72 45.042,51.464 L45.042,51.464 L45.042,47.816 L48.174,47.816 L48.174,53 L49.242,53 L49.242,47.042 L45.042,47.042 L45.042,44.948 L44.502,44.948 C44.434,44.948 44.379,44.967 44.337,45.005 C44.295,45.043 44.268,45.092 44.256,45.152 L44.256,45.152 L44.01,47.024 L43.014,47.156 L43.014,47.582 C43.014,47.662 43.036,47.721 43.08,47.759 C43.124,47.797 43.178,47.816 43.242,47.816 L43.242,47.816 L43.974,47.816 L43.974,51.536 C43.974,52.04 44.103,52.426 44.361,52.694 C44.619,52.962 44.988,53.096 45.468,53.096 Z M53.856,53.084 C54.3,53.084 54.7,53.011 55.056,52.865 C55.412,52.719 55.716,52.51 55.968,52.238 C56.22,51.966 56.413,51.638 56.547,51.254 C56.681,50.87 56.748,50.438 56.748,49.958 C56.748,49.482 56.681,49.051 56.547,48.665 C56.413,48.279 56.22,47.95 55.968,47.678 C55.716,47.406 55.412,47.196 55.056,47.048 C54.7,46.9 54.3,46.826 53.856,46.826 C53.408,46.826 53.005,46.9 52.647,47.048 C52.289,47.196 51.984,47.406 51.732,47.678 C51.48,47.95 51.287,48.279 51.153,48.665 C51.019,49.051 50.952,49.482 50.952,49.958 C50.952,50.438 51.019,50.87 51.153,51.254 C51.287,51.638 51.48,51.966 51.732,52.238 C51.984,52.51 52.289,52.719 52.647,52.865 C53.005,53.011 53.408,53.084 53.856,53.084 Z M53.856,52.25 C53.248,52.25 52.795,52.049 52.497,51.647 C52.199,51.245 52.05,50.684 52.05,49.964 C52.05,49.604 52.087,49.281 52.161,48.995 C52.235,48.709 52.347,48.468 52.497,48.272 C52.647,48.076 52.835,47.926 53.061,47.822 C53.287,47.718 53.552,47.666 53.856,47.666 C54.456,47.666 54.904,47.868 55.2,48.272 C55.496,48.676 55.644,49.24 55.644,49.964 C55.644,50.684 55.496,51.245 55.2,51.647 C54.904,52.049 54.456,52.25 53.856,52.25 Z M59.472,53 L59.472,48.524 C59.704,48.264 59.957,48.058 60.231,47.906 C60.505,47.754 60.8,47.678 61.116,47.678 C61.544,47.678 61.863,47.805 62.073,48.059 C62.283,48.313 62.388,48.67 62.388,49.13 L62.388,49.13 L62.388,53 L63.462,53 L63.462,49.13 C63.462,48.786 63.418,48.472 63.33,48.188 C63.242,47.904 63.113,47.661 62.943,47.459 C62.773,47.257 62.561,47.101 62.307,46.991 C62.053,46.881 61.76,46.826 61.428,46.826 C61.212,46.826 61.011,46.849 60.825,46.895 C60.639,46.941 60.463,47.007 60.297,47.093 C60.131,47.179 59.974,47.282 59.826,47.402 C59.678,47.522 59.538,47.656 59.406,47.804 L59.406,47.804 L59.322,47.144 C59.286,46.996 59.192,46.922 59.04,46.922 L59.04,46.922 L58.398,46.922 L58.398,53 L59.472,53 Z M66.648,53.096 C66.88,53.096 67.091,53.075 67.281,53.033 C67.471,52.991 67.65,52.931 67.818,52.853 C67.986,52.775 68.146,52.679 68.298,52.565 C68.45,52.451 68.606,52.32 68.766,52.172 L68.766,52.172 L68.886,52.748 C68.918,52.848 68.962,52.915 69.018,52.949 C69.074,52.983 69.154,53 69.258,53 L69.258,53 L69.732,53 L69.732,49.112 C69.732,48.772 69.686,48.46 69.594,48.176 C69.502,47.892 69.366,47.65 69.186,47.45 C69.006,47.25 68.784,47.094 68.52,46.982 C68.256,46.87 67.954,46.814 67.614,46.814 C67.142,46.814 66.712,46.894 66.324,47.054 C65.936,47.214 65.574,47.456 65.238,47.78 L65.238,47.78 L65.43,48.122 C65.466,48.178 65.51,48.225 65.562,48.263 C65.614,48.301 65.676,48.32 65.748,48.32 C65.84,48.32 65.933,48.287 66.027,48.221 C66.121,48.155 66.233,48.081 66.363,47.999 C66.493,47.917 66.647,47.843 66.825,47.777 C67.003,47.711 67.224,47.678 67.488,47.678 C67.88,47.678 68.178,47.799 68.382,48.041 C68.586,48.283 68.688,48.64 68.688,49.112 L68.688,49.112 L68.688,49.586 C67.996,49.602 67.412,49.665 66.936,49.775 C66.46,49.885 66.074,50.026 65.778,50.198 C65.482,50.37 65.268,50.567 65.136,50.789 C65.004,51.011 64.938,51.242 64.938,51.482 C64.938,51.758 64.983,51.997 65.073,52.199 C65.163,52.401 65.285,52.568 65.439,52.7 C65.593,52.832 65.774,52.931 65.982,52.997 C66.19,53.063 66.412,53.096 66.648,53.096 Z M66.966,52.346 C66.826,52.346 66.695,52.329 66.573,52.295 C66.451,52.261 66.345,52.207 66.255,52.133 C66.165,52.059 66.094,51.964 66.042,51.848 C65.99,51.732 65.964,51.594 65.964,51.434 C65.964,51.266 66.013,51.114 66.111,50.978 C66.209,50.842 66.367,50.724 66.585,50.624 C66.803,50.524 67.085,50.443 67.431,50.381 C67.777,50.319 68.196,50.28 68.688,50.264 L68.688,50.264 L68.688,51.524 C68.568,51.652 68.445,51.766 68.319,51.866 C68.193,51.966 68.061,52.052 67.923,52.124 C67.785,52.196 67.638,52.251 67.482,52.289 C67.326,52.327 67.154,52.346 66.966,52.346 Z M72.762,53 L72.762,44.162 L71.694,44.162 L71.694,53 L72.762,53 Z M79.572,53 L79.572,49.784 L80.952,49.784 C81.472,49.784 81.931,49.717 82.329,49.583 C82.727,49.449 83.061,49.262 83.331,49.022 C83.601,48.782 83.806,48.496 83.946,48.164 C84.086,47.832 84.156,47.466 84.156,47.066 C84.156,46.662 84.091,46.296 83.961,45.968 C83.831,45.64 83.634,45.36 83.37,45.128 C83.106,44.896 82.773,44.717 82.371,44.591 C81.969,44.465 81.496,44.402 80.952,44.402 L80.952,44.402 L78.414,44.402 L78.414,53 L79.572,53 Z M80.952,48.86 L79.572,48.86 L79.572,45.32 L80.952,45.32 C81.64,45.32 82.153,45.474 82.491,45.782 C82.829,46.09 82.998,46.518 82.998,47.066 C82.998,47.33 82.954,47.572 82.866,47.792 C82.778,48.012 82.647,48.201 82.473,48.359 C82.299,48.517 82.085,48.64 81.831,48.728 C81.577,48.816 81.284,48.86 80.952,48.86 L80.952,48.86 Z M86.628,53 L86.628,49.16 C86.704,48.952 86.789,48.767 86.883,48.605 C86.977,48.443 87.083,48.307 87.201,48.197 C87.319,48.087 87.453,48.004 87.603,47.948 C87.753,47.892 87.924,47.864 88.116,47.864 C88.252,47.864 88.374,47.876 88.482,47.9 C88.59,47.924 88.672,47.936 88.728,47.936 C88.824,47.936 88.884,47.886 88.908,47.786 L88.908,47.786 L88.986,46.988 C88.894,46.928 88.789,46.884 88.671,46.856 C88.553,46.828 88.43,46.814 88.302,46.814 C87.898,46.814 87.556,46.931 87.276,47.165 C86.996,47.399 86.76,47.724 86.568,48.14 L86.568,48.14 L86.496,47.216 C86.48,47.108 86.45,47.032 86.406,46.988 C86.362,46.944 86.282,46.922 86.166,46.922 L86.166,46.922 L85.554,46.922 L85.554,53 L86.628,53 Z M92.538,53.084 C92.982,53.084 93.382,53.011 93.738,52.865 C94.094,52.719 94.398,52.51 94.65,52.238 C94.902,51.966 95.095,51.638 95.229,51.254 C95.363,50.87 95.43,50.438 95.43,49.958 C95.43,49.482 95.363,49.051 95.229,48.665 C95.095,48.279 94.902,47.95 94.65,47.678 C94.398,47.406 94.094,47.196 93.738,47.048 C93.382,46.9 92.982,46.826 92.538,46.826 C92.09,46.826 91.687,46.9 91.329,47.048 C90.971,47.196 90.666,47.406 90.414,47.678 C90.162,47.95 89.969,48.279 89.835,48.665 C89.701,49.051 89.634,49.482 89.634,49.958 C89.634,50.438 89.701,50.87 89.835,51.254 C89.969,51.638 90.162,51.966 90.414,52.238 C90.666,52.51 90.971,52.719 91.329,52.865 C91.687,53.011 92.09,53.084 92.538,53.084 Z M92.538,52.25 C91.93,52.25 91.477,52.049 91.179,51.647 C90.881,51.245 90.732,50.684 90.732,49.964 C90.732,49.604 90.769,49.281 90.843,48.995 C90.917,48.709 91.029,48.468 91.179,48.272 C91.329,48.076 91.517,47.926 91.743,47.822 C91.969,47.718 92.234,47.666 92.538,47.666 C93.138,47.666 93.586,47.868 93.882,48.272 C94.178,48.676 94.326,49.24 94.326,49.964 C94.326,50.684 94.178,51.245 93.882,51.647 C93.586,52.049 93.138,52.25 92.538,52.25 Z M99.228,55.19 C99.672,55.19 100.071,55.133 100.425,55.019 C100.779,54.905 101.078,54.753 101.322,54.563 C101.566,54.373 101.753,54.156 101.883,53.912 C102.013,53.668 102.078,53.416 102.078,53.156 C102.078,52.876 102.019,52.648 101.901,52.472 C101.783,52.296 101.628,52.158 101.436,52.058 C101.244,51.958 101.025,51.886 100.779,51.842 C100.533,51.798 100.281,51.767 100.023,51.749 C99.765,51.731 99.513,51.718 99.267,51.71 C99.021,51.702 98.802,51.682 98.61,51.65 C98.418,51.618 98.263,51.565 98.145,51.491 C98.027,51.417 97.968,51.308 97.968,51.164 C97.968,51.072 98.002,50.981 98.07,50.891 C98.138,50.801 98.236,50.716 98.364,50.636 C98.616,50.704 98.884,50.738 99.168,50.738 C99.496,50.738 99.8,50.692 100.08,50.6 C100.36,50.508 100.6,50.376 100.8,50.204 C101,50.032 101.157,49.825 101.271,49.583 C101.385,49.341 101.442,49.072 101.442,48.776 C101.442,48.456 101.374,48.164 101.238,47.9 L101.238,47.9 L101.928,47.81 C102.096,47.774 102.18,47.69 102.18,47.558 L102.18,47.558 L102.18,47.162 L100.53,47.162 C100.342,47.05 100.134,46.965 99.906,46.907 C99.678,46.849 99.432,46.82 99.168,46.82 C98.832,46.82 98.523,46.866 98.241,46.958 C97.959,47.05 97.716,47.181 97.512,47.351 C97.308,47.521 97.149,47.727 97.035,47.969 C96.921,48.211 96.864,48.48 96.864,48.776 C96.864,49.144 96.948,49.467 97.116,49.745 C97.284,50.023 97.518,50.246 97.818,50.414 C97.69,50.478 97.578,50.552 97.482,50.636 C97.386,50.72 97.305,50.809 97.239,50.903 C97.173,50.997 97.124,51.091 97.092,51.185 C97.06,51.279 97.044,51.37 97.044,51.458 C97.044,51.686 97.097,51.867 97.203,52.001 C97.309,52.135 97.452,52.242 97.632,52.322 C97.304,52.446 97.046,52.612 96.858,52.82 C96.67,53.028 96.576,53.282 96.576,53.582 C96.576,53.794 96.631,53.997 96.741,54.191 C96.851,54.385 97.016,54.556 97.236,54.704 C97.456,54.852 97.732,54.97 98.064,55.058 C98.396,55.146 98.784,55.19 99.228,55.19 Z M99.168,50.03 C98.952,50.03 98.762,50 98.598,49.94 C98.434,49.88 98.296,49.796 98.184,49.688 C98.072,49.58 97.987,49.451 97.929,49.301 C97.871,49.151 97.842,48.986 97.842,48.806 C97.842,48.434 97.955,48.138 98.181,47.918 C98.407,47.698 98.736,47.588 99.168,47.588 C99.596,47.588 99.923,47.698 100.149,47.918 C100.375,48.138 100.488,48.434 100.488,48.806 C100.488,48.986 100.46,49.151 100.404,49.301 C100.348,49.451 100.264,49.58 100.152,49.688 C100.04,49.796 99.902,49.88 99.738,49.94 C99.574,50 99.384,50.03 99.168,50.03 Z M99.252,54.41 C98.956,54.41 98.699,54.385 98.481,54.335 C98.263,54.285 98.082,54.217 97.938,54.131 C97.794,54.045 97.687,53.943 97.617,53.825 C97.547,53.707 97.512,53.58 97.512,53.444 C97.512,53.232 97.583,53.047 97.725,52.889 C97.867,52.731 98.05,52.6 98.274,52.496 C98.474,52.524 98.682,52.544 98.898,52.556 C99.114,52.568 99.327,52.58 99.537,52.592 C99.747,52.604 99.946,52.621 100.134,52.643 C100.322,52.665 100.487,52.702 100.629,52.754 C100.771,52.806 100.884,52.878 100.968,52.97 C101.052,53.062 101.094,53.182 101.094,53.33 C101.094,53.49 101.052,53.636 100.968,53.768 C100.884,53.9 100.763,54.014 100.605,54.11 C100.447,54.206 100.254,54.28 100.026,54.332 C99.798,54.384 99.54,54.41 99.252,54.41 Z M104.664,53 L104.664,49.16 C104.74,48.952 104.825,48.767 104.919,48.605 C105.013,48.443 105.119,48.307 105.237,48.197 C105.355,48.087 105.489,48.004 105.639,47.948 C105.789,47.892 105.96,47.864 106.152,47.864 C106.288,47.864 106.41,47.876 106.518,47.9 C106.626,47.924 106.708,47.936 106.764,47.936 C106.86,47.936 106.92,47.886 106.944,47.786 L106.944,47.786 L107.022,46.988 C106.93,46.928 106.825,46.884 106.707,46.856 C106.589,46.828 106.466,46.814 106.338,46.814 C105.934,46.814 105.592,46.931 105.312,47.165 C105.032,47.399 104.796,47.724 104.604,48.14 L104.604,48.14 L104.532,47.216 C104.516,47.108 104.486,47.032 104.442,46.988 C104.398,46.944 104.318,46.922 104.202,46.922 L104.202,46.922 L103.59,46.922 L103.59,53 L104.664,53 Z M109.416,53.096 C109.648,53.096 109.859,53.075 110.049,53.033 C110.239,52.991 110.418,52.931 110.586,52.853 C110.754,52.775 110.914,52.679 111.066,52.565 C111.218,52.451 111.374,52.32 111.534,52.172 L111.534,52.172 L111.654,52.748 C111.686,52.848 111.73,52.915 111.786,52.949 C111.842,52.983 111.922,53 112.026,53 L112.026,53 L112.5,53 L112.5,49.112 C112.5,48.772 112.454,48.46 112.362,48.176 C112.27,47.892 112.134,47.65 111.954,47.45 C111.774,47.25 111.552,47.094 111.288,46.982 C111.024,46.87 110.722,46.814 110.382,46.814 C109.91,46.814 109.48,46.894 109.092,47.054 C108.704,47.214 108.342,47.456 108.006,47.78 L108.006,47.78 L108.198,48.122 C108.234,48.178 108.278,48.225 108.33,48.263 C108.382,48.301 108.444,48.32 108.516,48.32 C108.608,48.32 108.701,48.287 108.795,48.221 C108.889,48.155 109.001,48.081 109.131,47.999 C109.261,47.917 109.415,47.843 109.593,47.777 C109.771,47.711 109.992,47.678 110.256,47.678 C110.648,47.678 110.946,47.799 111.15,48.041 C111.354,48.283 111.456,48.64 111.456,49.112 L111.456,49.112 L111.456,49.586 C110.764,49.602 110.18,49.665 109.704,49.775 C109.228,49.885 108.842,50.026 108.546,50.198 C108.25,50.37 108.036,50.567 107.904,50.789 C107.772,51.011 107.706,51.242 107.706,51.482 C107.706,51.758 107.751,51.997 107.841,52.199 C107.931,52.401 108.053,52.568 108.207,52.7 C108.361,52.832 108.542,52.931 108.75,52.997 C108.958,53.063 109.18,53.096 109.416,53.096 Z M109.734,52.346 C109.594,52.346 109.463,52.329 109.341,52.295 C109.219,52.261 109.113,52.207 109.023,52.133 C108.933,52.059 108.862,51.964 108.81,51.848 C108.758,51.732 108.732,51.594 108.732,51.434 C108.732,51.266 108.781,51.114 108.879,50.978 C108.977,50.842 109.135,50.724 109.353,50.624 C109.571,50.524 109.853,50.443 110.199,50.381 C110.545,50.319 110.964,50.28 111.456,50.264 L111.456,50.264 L111.456,51.524 C111.336,51.652 111.213,51.766 111.087,51.866 C110.961,51.966 110.829,52.052 110.691,52.124 C110.553,52.196 110.406,52.251 110.25,52.289 C110.094,52.327 109.922,52.346 109.734,52.346 Z M115.5,53 L115.5,48.47 C115.688,48.226 115.894,48.033 116.118,47.891 C116.342,47.749 116.586,47.678 116.85,47.678 C117.226,47.678 117.512,47.798 117.708,48.038 C117.904,48.278 118.002,48.642 118.002,49.13 L118.002,49.13 L118.002,53 L119.076,53 L119.076,49.13 C119.076,48.89 119.111,48.679 119.181,48.497 C119.251,48.315 119.346,48.164 119.466,48.044 C119.586,47.924 119.725,47.833 119.883,47.771 C120.041,47.709 120.208,47.678 120.384,47.678 C120.776,47.678 121.076,47.801 121.284,48.047 C121.492,48.293 121.596,48.654 121.596,49.13 L121.596,49.13 L121.596,53 L122.67,53 L122.67,49.13 C122.67,48.762 122.624,48.435 122.532,48.149 C122.44,47.863 122.307,47.622 122.133,47.426 C121.959,47.23 121.747,47.081 121.497,46.979 C121.247,46.877 120.962,46.826 120.642,46.826 C120.442,46.826 120.245,46.85 120.051,46.898 C119.857,46.946 119.674,47.022 119.502,47.126 C119.33,47.23 119.175,47.362 119.037,47.522 C118.899,47.682 118.786,47.872 118.698,48.092 C118.586,47.704 118.403,47.396 118.149,47.168 C117.895,46.94 117.564,46.826 117.156,46.826 C116.788,46.826 116.464,46.914 116.184,47.09 C115.904,47.266 115.652,47.492 115.428,47.768 L115.428,47.768 L115.35,47.144 C115.314,46.996 115.22,46.922 115.068,46.922 L115.068,46.922 L114.426,46.922 L114.426,53 L115.5,53 Z M125.67,53 L125.67,48.47 C125.858,48.226 126.064,48.033 126.288,47.891 C126.512,47.749 126.756,47.678 127.02,47.678 C127.396,47.678 127.682,47.798 127.878,48.038 C128.074,48.278 128.172,48.642 128.172,49.13 L128.172,49.13 L128.172,53 L129.246,53 L129.246,49.13 C129.246,48.89 129.281,48.679 129.351,48.497 C129.421,48.315 129.516,48.164 129.636,48.044 C129.756,47.924 129.895,47.833 130.053,47.771 C130.211,47.709 130.378,47.678 130.554,47.678 C130.946,47.678 131.246,47.801 131.454,48.047 C131.662,48.293 131.766,48.654 131.766,49.13 L131.766,49.13 L131.766,53 L132.84,53 L132.84,49.13 C132.84,48.762 132.794,48.435 132.702,48.149 C132.61,47.863 132.477,47.622 132.303,47.426 C132.129,47.23 131.917,47.081 131.667,46.979 C131.417,46.877 131.132,46.826 130.812,46.826 C130.612,46.826 130.415,46.85 130.221,46.898 C130.027,46.946 129.844,47.022 129.672,47.126 C129.5,47.23 129.345,47.362 129.207,47.522 C129.069,47.682 128.956,47.872 128.868,48.092 C128.756,47.704 128.573,47.396 128.319,47.168 C128.065,46.94 127.734,46.826 127.326,46.826 C126.958,46.826 126.634,46.914 126.354,47.09 C126.074,47.266 125.822,47.492 125.598,47.768 L125.598,47.768 L125.52,47.144 C125.484,46.996 125.39,46.922 125.238,46.922 L125.238,46.922 L124.596,46.922 L124.596,53 L125.67,53 Z M137.316,53.084 C137.536,53.084 137.758,53.065 137.982,53.027 C138.206,52.989 138.423,52.932 138.633,52.856 C138.843,52.78 139.04,52.683 139.224,52.565 C139.408,52.447 139.566,52.308 139.698,52.148 L139.698,52.148 L139.398,51.758 C139.35,51.69 139.282,51.656 139.194,51.656 C139.126,51.656 139.045,51.687 138.951,51.749 C138.857,51.811 138.74,51.878 138.6,51.95 C138.46,52.022 138.293,52.089 138.099,52.151 C137.905,52.213 137.674,52.244 137.406,52.244 C137.118,52.244 136.858,52.197 136.626,52.103 C136.394,52.009 136.194,51.867 136.026,51.677 C135.858,51.487 135.727,51.25 135.633,50.966 C135.539,50.682 135.486,50.348 135.474,49.964 L135.474,49.964 L139.536,49.964 C139.636,49.964 139.704,49.936 139.74,49.88 C139.776,49.824 139.794,49.712 139.794,49.544 C139.794,49.112 139.73,48.727 139.602,48.389 C139.474,48.051 139.297,47.767 139.071,47.537 C138.845,47.307 138.577,47.131 138.267,47.009 C137.957,46.887 137.62,46.826 137.256,46.826 C136.816,46.826 136.42,46.903 136.068,47.057 C135.716,47.211 135.418,47.423 135.174,47.693 C134.93,47.963 134.743,48.282 134.613,48.65 C134.483,49.018 134.418,49.414 134.418,49.838 C134.418,50.362 134.49,50.826 134.634,51.23 C134.778,51.634 134.979,51.973 135.237,52.247 C135.495,52.521 135.801,52.729 136.155,52.871 C136.509,53.013 136.896,53.084 137.316,53.084 Z M138.834,49.298 L135.51,49.298 C135.582,48.77 135.767,48.357 136.065,48.059 C136.363,47.761 136.768,47.612 137.28,47.612 C137.524,47.612 137.742,47.653 137.934,47.735 C138.126,47.817 138.289,47.933 138.423,48.083 C138.557,48.233 138.659,48.411 138.729,48.617 C138.799,48.823 138.834,49.05 138.834,49.298 L138.834,49.298 Z M146.244,53 L146.244,47.816 L147.96,47.816 L147.96,47.042 L146.208,47.042 L146.208,46.484 C146.208,46.224 146.237,46.006 146.295,45.83 C146.353,45.654 146.436,45.512 146.544,45.404 C146.652,45.296 146.781,45.218 146.931,45.17 C147.081,45.122 147.248,45.098 147.432,45.098 C147.596,45.098 147.727,45.094 147.825,45.086 C147.923,45.078 147.976,45.026 147.984,44.93 L147.984,44.93 L148.008,44.396 C147.78,44.316 147.53,44.276 147.258,44.276 C146.938,44.276 146.65,44.324 146.394,44.42 C146.138,44.516 145.919,44.657 145.737,44.843 C145.555,45.029 145.415,45.257 145.317,45.527 C145.219,45.797 145.17,46.106 145.17,46.454 L145.17,46.454 L145.17,47.042 L144.21,47.042 L144.21,47.48 C144.21,47.56 144.237,47.621 144.291,47.663 C144.345,47.705 144.414,47.736 144.498,47.756 L144.498,47.756 L145.17,47.834 L145.17,53 L146.244,53 Z M151.644,53.084 C152.088,53.084 152.488,53.011 152.844,52.865 C153.2,52.719 153.504,52.51 153.756,52.238 C154.008,51.966 154.201,51.638 154.335,51.254 C154.469,50.87 154.536,50.438 154.536,49.958 C154.536,49.482 154.469,49.051 154.335,48.665 C154.201,48.279 154.008,47.95 153.756,47.678 C153.504,47.406 153.2,47.196 152.844,47.048 C152.488,46.9 152.088,46.826 151.644,46.826 C151.196,46.826 150.793,46.9 150.435,47.048 C150.077,47.196 149.772,47.406 149.52,47.678 C149.268,47.95 149.075,48.279 148.941,48.665 C148.807,49.051 148.74,49.482 148.74,49.958 C148.74,50.438 148.807,50.87 148.941,51.254 C149.075,51.638 149.268,51.966 149.52,52.238 C149.772,52.51 150.077,52.719 150.435,52.865 C150.793,53.011 151.196,53.084 151.644,53.084 Z M151.644,52.25 C151.036,52.25 150.583,52.049 150.285,51.647 C149.987,51.245 149.838,50.684 149.838,49.964 C149.838,49.604 149.875,49.281 149.949,48.995 C150.023,48.709 150.135,48.468 150.285,48.272 C150.435,48.076 150.623,47.926 150.849,47.822 C151.075,47.718 151.34,47.666 151.644,47.666 C152.244,47.666 152.692,47.868 152.988,48.272 C153.284,48.676 153.432,49.24 153.432,49.964 C153.432,50.684 153.284,51.245 152.988,51.647 C152.692,52.049 152.244,52.25 151.644,52.25 Z M157.26,53 L157.26,49.16 C157.336,48.952 157.421,48.767 157.515,48.605 C157.609,48.443 157.715,48.307 157.833,48.197 C157.951,48.087 158.085,48.004 158.235,47.948 C158.385,47.892 158.556,47.864 158.748,47.864 C158.884,47.864 159.006,47.876 159.114,47.9 C159.222,47.924 159.304,47.936 159.36,47.936 C159.456,47.936 159.516,47.886 159.54,47.786 L159.54,47.786 L159.618,46.988 C159.526,46.928 159.421,46.884 159.303,46.856 C159.185,46.828 159.062,46.814 158.934,46.814 C158.53,46.814 158.188,46.931 157.908,47.165 C157.628,47.399 157.392,47.724 157.2,48.14 L157.2,48.14 L157.128,47.216 C157.112,47.108 157.082,47.032 157.038,46.988 C156.994,46.944 156.914,46.922 156.798,46.922 L156.798,46.922 L156.186,46.922 L156.186,53 L157.26,53 Z M167.79,53.096 C168.502,53.096 169.109,52.982 169.611,52.754 C170.113,52.526 170.54,52.208 170.892,51.8 L170.892,51.8 L170.43,51.302 C170.382,51.25 170.326,51.224 170.262,51.224 C170.194,51.224 170.126,51.254 170.058,51.314 C169.91,51.45 169.761,51.567 169.611,51.665 C169.461,51.763 169.299,51.844 169.125,51.908 C168.951,51.972 168.761,52.019 168.555,52.049 C168.349,52.079 168.118,52.094 167.862,52.094 C167.442,52.094 167.051,52.018 166.689,51.866 C166.327,51.714 166.013,51.493 165.747,51.203 C165.481,50.913 165.271,50.558 165.117,50.138 C164.963,49.718 164.886,49.24 164.886,48.704 C164.886,48.176 164.96,47.702 165.108,47.282 C165.256,46.862 165.463,46.506 165.729,46.214 C165.995,45.922 166.312,45.699 166.68,45.545 C167.048,45.391 167.454,45.314 167.898,45.314 C168.266,45.314 168.576,45.353 168.828,45.431 C169.08,45.509 169.29,45.596 169.458,45.692 C169.626,45.788 169.762,45.875 169.866,45.953 C169.97,46.031 170.058,46.07 170.13,46.07 C170.194,46.07 170.245,46.057 170.283,46.031 C170.321,46.005 170.352,45.972 170.376,45.932 L170.376,45.932 L170.76,45.398 C170.404,45.062 169.992,44.796 169.524,44.6 C169.056,44.404 168.516,44.306 167.904,44.306 C167.28,44.306 166.71,44.413 166.194,44.627 C165.678,44.841 165.235,45.142 164.865,45.53 C164.495,45.918 164.208,46.382 164.004,46.922 C163.8,47.462 163.698,48.056 163.698,48.704 C163.698,49.352 163.796,49.946 163.992,50.486 C164.188,51.026 164.464,51.489 164.82,51.875 C165.176,52.261 165.606,52.561 166.11,52.775 C166.614,52.989 167.174,53.096 167.79,53.096 Z M172.872,45.77 C172.976,45.77 173.075,45.75 173.169,45.71 C173.263,45.67 173.345,45.615 173.415,45.545 C173.485,45.475 173.541,45.395 173.583,45.305 C173.625,45.215 173.646,45.118 173.646,45.014 C173.646,44.91 173.625,44.811 173.583,44.717 C173.541,44.623 173.485,44.541 173.415,44.471 C173.345,44.401 173.263,44.346 173.169,44.306 C173.075,44.266 172.976,44.246 172.872,44.246 C172.768,44.246 172.671,44.266 172.581,44.306 C172.491,44.346 172.412,44.401 172.344,44.471 C172.276,44.541 172.222,44.623 172.182,44.717 C172.142,44.811 172.122,44.91 172.122,45.014 C172.122,45.118 172.142,45.215 172.182,45.305 C172.222,45.395 172.276,45.475 172.344,45.545 C172.412,45.615 172.491,45.67 172.581,45.71 C172.671,45.75 172.768,45.77 172.872,45.77 Z M173.418,53 L173.418,46.922 L172.35,46.922 L172.35,53 L173.418,53 Z M178.2,53 L180.678,46.922 L179.844,46.922 C179.768,46.922 179.702,46.943 179.646,46.985 C179.59,47.027 179.55,47.08 179.526,47.144 L179.526,47.144 L177.966,51.056 C177.914,51.204 177.87,51.348 177.834,51.488 C177.798,51.628 177.764,51.768 177.732,51.908 C177.7,51.768 177.666,51.628 177.63,51.488 C177.594,51.348 177.552,51.204 177.504,51.056 L177.504,51.056 L175.962,47.144 C175.942,47.084 175.904,47.032 175.848,46.988 C175.792,46.944 175.72,46.922 175.632,46.922 L175.632,46.922 L174.762,46.922 L177.24,53 L178.2,53 Z M182.544,45.77 C182.648,45.77 182.747,45.75 182.841,45.71 C182.935,45.67 183.017,45.615 183.087,45.545 C183.157,45.475 183.213,45.395 183.255,45.305 C183.297,45.215 183.318,45.118 183.318,45.014 C183.318,44.91 183.297,44.811 183.255,44.717 C183.213,44.623 183.157,44.541 183.087,44.471 C183.017,44.401 182.935,44.346 182.841,44.306 C182.747,44.266 182.648,44.246 182.544,44.246 C182.44,44.246 182.343,44.266 182.253,44.306 C182.163,44.346 182.084,44.401 182.016,44.471 C181.948,44.541 181.894,44.623 181.854,44.717 C181.814,44.811 181.794,44.91 181.794,45.014 C181.794,45.118 181.814,45.215 181.854,45.305 C181.894,45.395 181.948,45.475 182.016,45.545 C182.084,45.615 182.163,45.67 182.253,45.71 C182.343,45.75 182.44,45.77 182.544,45.77 Z M183.09,53 L183.09,46.922 L182.022,46.922 L182.022,53 L183.09,53 Z M186.246,53 L186.246,44.162 L185.178,44.162 L185.178,53 L186.246,53 Z M193.89,53.096 C194.346,53.096 194.753,53.026 195.111,52.886 C195.469,52.746 195.771,52.554 196.017,52.31 C196.263,52.066 196.45,51.779 196.578,51.449 C196.706,51.119 196.77,50.766 196.77,50.39 C196.77,50.034 196.711,49.734 196.593,49.49 C196.475,49.246 196.319,49.04 196.125,48.872 C195.931,48.704 195.711,48.565 195.465,48.455 C195.219,48.345 194.967,48.246 194.709,48.158 C194.451,48.07 194.199,47.985 193.953,47.903 C193.707,47.821 193.487,47.724 193.293,47.612 C193.099,47.5 192.943,47.365 192.825,47.207 C192.707,47.049 192.648,46.85 192.648,46.61 C192.648,46.422 192.682,46.247 192.75,46.085 C192.818,45.923 192.919,45.782 193.053,45.662 C193.187,45.542 193.353,45.447 193.551,45.377 C193.749,45.307 193.978,45.272 194.238,45.272 C194.514,45.272 194.749,45.306 194.943,45.374 C195.137,45.442 195.303,45.517 195.441,45.599 C195.579,45.681 195.694,45.756 195.786,45.824 C195.878,45.892 195.958,45.926 196.026,45.926 C196.086,45.926 196.137,45.911 196.179,45.881 C196.221,45.851 196.26,45.806 196.296,45.746 L196.296,45.746 L196.578,45.194 C196.278,44.906 195.931,44.686 195.537,44.534 C195.143,44.382 194.706,44.306 194.226,44.306 C193.798,44.306 193.419,44.372 193.089,44.504 C192.759,44.636 192.481,44.812 192.255,45.032 C192.029,45.252 191.857,45.504 191.739,45.788 C191.621,46.072 191.562,46.366 191.562,46.67 C191.562,47.05 191.621,47.369 191.739,47.627 C191.857,47.885 192.012,48.1 192.204,48.272 C192.396,48.444 192.616,48.584 192.864,48.692 C193.112,48.8 193.364,48.895 193.62,48.977 C193.876,49.059 194.128,49.139 194.376,49.217 C194.624,49.295 194.844,49.39 195.036,49.502 C195.228,49.614 195.383,49.753 195.501,49.919 C195.619,50.085 195.678,50.298 195.678,50.558 C195.678,50.794 195.638,51.008 195.558,51.2 C195.478,51.392 195.363,51.557 195.213,51.695 C195.063,51.833 194.88,51.94 194.664,52.016 C194.448,52.092 194.202,52.13 193.926,52.13 C193.706,52.13 193.508,52.109 193.332,52.067 C193.156,52.025 192.999,51.972 192.861,51.908 C192.723,51.844 192.6,51.774 192.492,51.698 C192.384,51.622 192.288,51.552 192.204,51.488 C192.12,51.424 192.045,51.371 191.979,51.329 C191.913,51.287 191.854,51.266 191.802,51.266 C191.746,51.266 191.695,51.281 191.649,51.311 C191.603,51.341 191.564,51.378 191.532,51.422 L191.532,51.422 L191.196,51.974 C191.52,52.318 191.91,52.591 192.366,52.793 C192.822,52.995 193.33,53.096 193.89,53.096 Z M200.97,53.084 C201.19,53.084 201.412,53.065 201.636,53.027 C201.86,52.989 202.077,52.932 202.287,52.856 C202.497,52.78 202.694,52.683 202.878,52.565 C203.062,52.447 203.22,52.308 203.352,52.148 L203.352,52.148 L203.052,51.758 C203.004,51.69 202.936,51.656 202.848,51.656 C202.78,51.656 202.699,51.687 202.605,51.749 C202.511,51.811 202.394,51.878 202.254,51.95 C202.114,52.022 201.947,52.089 201.753,52.151 C201.559,52.213 201.328,52.244 201.06,52.244 C200.772,52.244 200.512,52.197 200.28,52.103 C200.048,52.009 199.848,51.867 199.68,51.677 C199.512,51.487 199.381,51.25 199.287,50.966 C199.193,50.682 199.14,50.348 199.128,49.964 L199.128,49.964 L203.19,49.964 C203.29,49.964 203.358,49.936 203.394,49.88 C203.43,49.824 203.448,49.712 203.448,49.544 C203.448,49.112 203.384,48.727 203.256,48.389 C203.128,48.051 202.951,47.767 202.725,47.537 C202.499,47.307 202.231,47.131 201.921,47.009 C201.611,46.887 201.274,46.826 200.91,46.826 C200.47,46.826 200.074,46.903 199.722,47.057 C199.37,47.211 199.072,47.423 198.828,47.693 C198.584,47.963 198.397,48.282 198.267,48.65 C198.137,49.018 198.072,49.414 198.072,49.838 C198.072,50.362 198.144,50.826 198.288,51.23 C198.432,51.634 198.633,51.973 198.891,52.247 C199.149,52.521 199.455,52.729 199.809,52.871 C200.163,53.013 200.55,53.084 200.97,53.084 Z M202.488,49.298 L199.164,49.298 C199.236,48.77 199.421,48.357 199.719,48.059 C200.017,47.761 200.422,47.612 200.934,47.612 C201.178,47.612 201.396,47.653 201.588,47.735 C201.78,47.817 201.943,47.933 202.077,48.083 C202.211,48.233 202.313,48.411 202.383,48.617 C202.453,48.823 202.488,49.05 202.488,49.298 L202.488,49.298 Z M206.13,53 L206.13,49.16 C206.206,48.952 206.291,48.767 206.385,48.605 C206.479,48.443 206.585,48.307 206.703,48.197 C206.821,48.087 206.955,48.004 207.105,47.948 C207.255,47.892 207.426,47.864 207.618,47.864 C207.754,47.864 207.876,47.876 207.984,47.9 C208.092,47.924 208.174,47.936 208.23,47.936 C208.326,47.936 208.386,47.886 208.41,47.786 L208.41,47.786 L208.488,46.988 C208.396,46.928 208.291,46.884 208.173,46.856 C208.055,46.828 207.932,46.814 207.804,46.814 C207.4,46.814 207.058,46.931 206.778,47.165 C206.498,47.399 206.262,47.724 206.07,48.14 L206.07,48.14 L205.998,47.216 C205.982,47.108 205.952,47.032 205.908,46.988 C205.864,46.944 205.784,46.922 205.668,46.922 L205.668,46.922 L205.056,46.922 L205.056,53 L206.13,53 Z M212.454,53 L214.932,46.922 L214.098,46.922 C214.022,46.922 213.956,46.943 213.9,46.985 C213.844,47.027 213.804,47.08 213.78,47.144 L213.78,47.144 L212.22,51.056 C212.168,51.204 212.124,51.348 212.088,51.488 C212.052,51.628 212.018,51.768 211.986,51.908 C211.954,51.768 211.92,51.628 211.884,51.488 C211.848,51.348 211.806,51.204 211.758,51.056 L211.758,51.056 L210.216,47.144 C210.196,47.084 210.158,47.032 210.102,46.988 C210.046,46.944 209.974,46.922 209.886,46.922 L209.886,46.922 L209.016,46.922 L211.494,53 L212.454,53 Z M216.798,45.77 C216.902,45.77 217.001,45.75 217.095,45.71 C217.189,45.67 217.271,45.615 217.341,45.545 C217.411,45.475 217.467,45.395 217.509,45.305 C217.551,45.215 217.572,45.118 217.572,45.014 C217.572,44.91 217.551,44.811 217.509,44.717 C217.467,44.623 217.411,44.541 217.341,44.471 C217.271,44.401 217.189,44.346 217.095,44.306 C217.001,44.266 216.902,44.246 216.798,44.246 C216.694,44.246 216.597,44.266 216.507,44.306 C216.417,44.346 216.338,44.401 216.27,44.471 C216.202,44.541 216.148,44.623 216.108,44.717 C216.068,44.811 216.048,44.91 216.048,45.014 C216.048,45.118 216.068,45.215 216.108,45.305 C216.148,45.395 216.202,45.475 216.27,45.545 C216.338,45.615 216.417,45.67 216.507,45.71 C216.597,45.75 216.694,45.77 216.798,45.77 Z M217.344,53 L217.344,46.922 L216.276,46.922 L216.276,53 L217.344,53 Z M221.73,53.084 C221.95,53.084 222.166,53.066 222.378,53.03 C222.59,52.994 222.793,52.937 222.987,52.859 C223.181,52.781 223.362,52.684 223.53,52.568 C223.698,52.452 223.848,52.312 223.98,52.148 L223.98,52.148 L223.68,51.758 C223.632,51.69 223.564,51.656 223.476,51.656 C223.404,51.656 223.331,51.687 223.257,51.749 C223.183,51.811 223.091,51.88 222.981,51.956 C222.871,52.032 222.732,52.101 222.564,52.163 C222.396,52.225 222.182,52.256 221.922,52.256 C221.65,52.256 221.405,52.205 221.187,52.103 C220.969,52.001 220.783,51.853 220.629,51.659 C220.475,51.465 220.356,51.225 220.272,50.939 C220.188,50.653 220.146,50.326 220.146,49.958 C220.146,49.606 220.185,49.288 220.263,49.004 C220.341,48.72 220.457,48.478 220.611,48.278 C220.765,48.078 220.956,47.925 221.184,47.819 C221.412,47.713 221.676,47.66 221.976,47.66 C222.2,47.66 222.389,47.685 222.543,47.735 C222.697,47.785 222.827,47.84 222.933,47.9 C223.039,47.96 223.128,48.015 223.2,48.065 C223.272,48.115 223.338,48.14 223.398,48.14 C223.454,48.14 223.498,48.128 223.53,48.104 C223.562,48.08 223.594,48.046 223.626,48.002 L223.626,48.002 L223.908,47.618 C223.656,47.366 223.367,47.171 223.041,47.033 C222.715,46.895 222.338,46.826 221.91,46.826 C221.45,46.826 221.043,46.904 220.689,47.06 C220.335,47.216 220.037,47.433 219.795,47.711 C219.553,47.989 219.369,48.32 219.243,48.704 C219.117,49.088 219.054,49.506 219.054,49.958 C219.054,50.454 219.122,50.896 219.258,51.284 C219.394,51.672 219.582,51.999 219.822,52.265 C220.062,52.531 220.345,52.734 220.671,52.874 C220.997,53.014 221.35,53.084 221.73,53.084 Z M227.868,53.084 C228.088,53.084 228.31,53.065 228.534,53.027 C228.758,52.989 228.975,52.932 229.185,52.856 C229.395,52.78 229.592,52.683 229.776,52.565 C229.96,52.447 230.118,52.308 230.25,52.148 L230.25,52.148 L229.95,51.758 C229.902,51.69 229.834,51.656 229.746,51.656 C229.678,51.656 229.597,51.687 229.503,51.749 C229.409,51.811 229.292,51.878 229.152,51.95 C229.012,52.022 228.845,52.089 228.651,52.151 C228.457,52.213 228.226,52.244 227.958,52.244 C227.67,52.244 227.41,52.197 227.178,52.103 C226.946,52.009 226.746,51.867 226.578,51.677 C226.41,51.487 226.279,51.25 226.185,50.966 C226.091,50.682 226.038,50.348 226.026,49.964 L226.026,49.964 L230.088,49.964 C230.188,49.964 230.256,49.936 230.292,49.88 C230.328,49.824 230.346,49.712 230.346,49.544 C230.346,49.112 230.282,48.727 230.154,48.389 C230.026,48.051 229.849,47.767 229.623,47.537 C229.397,47.307 229.129,47.131 228.819,47.009 C228.509,46.887 228.172,46.826 227.808,46.826 C227.368,46.826 226.972,46.903 226.62,47.057 C226.268,47.211 225.97,47.423 225.726,47.693 C225.482,47.963 225.295,48.282 225.165,48.65 C225.035,49.018 224.97,49.414 224.97,49.838 C224.97,50.362 225.042,50.826 225.186,51.23 C225.33,51.634 225.531,51.973 225.789,52.247 C226.047,52.521 226.353,52.729 226.707,52.871 C227.061,53.013 227.448,53.084 227.868,53.084 Z M229.386,49.298 L226.062,49.298 C226.134,48.77 226.319,48.357 226.617,48.059 C226.915,47.761 227.32,47.612 227.832,47.612 C228.076,47.612 228.294,47.653 228.486,47.735 C228.678,47.817 228.841,47.933 228.975,48.083 C229.109,48.233 229.211,48.411 229.281,48.617 C229.351,48.823 229.386,49.05 229.386,49.298 L229.386,49.298 Z M233.538,53.096 C233.91,53.096 234.238,53.046 234.522,52.946 C234.806,52.846 235.046,52.709 235.242,52.535 C235.438,52.361 235.586,52.155 235.686,51.917 C235.786,51.679 235.836,51.42 235.836,51.14 C235.836,50.896 235.791,50.687 235.701,50.513 C235.611,50.339 235.492,50.192 235.344,50.072 C235.196,49.952 235.028,49.852 234.84,49.772 C234.652,49.692 234.459,49.619 234.261,49.553 C234.063,49.487 233.87,49.425 233.682,49.367 C233.494,49.309 233.326,49.242 233.178,49.166 C233.03,49.09 232.911,49 232.821,48.896 C232.731,48.792 232.686,48.662 232.686,48.506 C232.686,48.382 232.713,48.267 232.767,48.161 C232.821,48.055 232.899,47.962 233.001,47.882 C233.103,47.802 233.226,47.739 233.37,47.693 C233.514,47.647 233.676,47.624 233.856,47.624 C234.064,47.624 234.244,47.647 234.396,47.693 C234.548,47.739 234.679,47.789 234.789,47.843 C234.899,47.897 234.992,47.946 235.068,47.99 C235.144,48.034 235.212,48.056 235.272,48.056 C235.372,48.056 235.446,48.012 235.494,47.924 L235.494,47.924 L235.734,47.534 C235.502,47.314 235.227,47.141 234.909,47.015 C234.591,46.889 234.232,46.826 233.832,46.826 C233.488,46.826 233.182,46.874 232.914,46.97 C232.646,47.066 232.42,47.195 232.236,47.357 C232.052,47.519 231.912,47.707 231.816,47.921 C231.72,48.135 231.672,48.358 231.672,48.59 C231.672,48.85 231.717,49.071 231.807,49.253 C231.897,49.435 232.016,49.588 232.164,49.712 C232.312,49.836 232.481,49.939 232.671,50.021 C232.861,50.103 233.055,50.176 233.253,50.24 C233.451,50.304 233.645,50.365 233.835,50.423 C234.025,50.481 234.194,50.549 234.342,50.627 C234.49,50.705 234.609,50.799 234.699,50.909 C234.789,51.019 234.834,51.158 234.834,51.326 C234.834,51.462 234.809,51.59 234.759,51.71 C234.709,51.83 234.632,51.936 234.528,52.028 C234.424,52.12 234.294,52.193 234.138,52.247 C233.982,52.301 233.8,52.328 233.592,52.328 C233.348,52.328 233.144,52.3 232.98,52.244 C232.816,52.188 232.677,52.126 232.563,52.058 C232.449,51.99 232.352,51.928 232.272,51.872 C232.192,51.816 232.116,51.788 232.044,51.788 C231.976,51.788 231.92,51.802 231.876,51.83 C231.832,51.858 231.794,51.898 231.762,51.95 L231.762,51.95 L231.51,52.358 C231.75,52.574 232.042,52.751 232.386,52.889 C232.73,53.027 233.114,53.096 233.538,53.096 Z M244.638,53.096 C245.35,53.096 245.957,52.982 246.459,52.754 C246.961,52.526 247.388,52.208 247.74,51.8 L247.74,51.8 L247.278,51.302 C247.23,51.25 247.174,51.224 247.11,51.224 C247.042,51.224 246.974,51.254 246.906,51.314 C246.758,51.45 246.609,51.567 246.459,51.665 C246.309,51.763 246.147,51.844 245.973,51.908 C245.799,51.972 245.609,52.019 245.403,52.049 C245.197,52.079 244.966,52.094 244.71,52.094 C244.29,52.094 243.899,52.018 243.537,51.866 C243.175,51.714 242.861,51.493 242.595,51.203 C242.329,50.913 242.119,50.558 241.965,50.138 C241.811,49.718 241.734,49.24 241.734,48.704 C241.734,48.176 241.808,47.702 241.956,47.282 C242.104,46.862 242.311,46.506 242.577,46.214 C242.843,45.922 243.16,45.699 243.528,45.545 C243.896,45.391 244.302,45.314 244.746,45.314 C245.114,45.314 245.424,45.353 245.676,45.431 C245.928,45.509 246.138,45.596 246.306,45.692 C246.474,45.788 246.61,45.875 246.714,45.953 C246.818,46.031 246.906,46.07 246.978,46.07 C247.042,46.07 247.093,46.057 247.131,46.031 C247.169,46.005 247.2,45.972 247.224,45.932 L247.224,45.932 L247.608,45.398 C247.252,45.062 246.84,44.796 246.372,44.6 C245.904,44.404 245.364,44.306 244.752,44.306 C244.128,44.306 243.558,44.413 243.042,44.627 C242.526,44.841 242.083,45.142 241.713,45.53 C241.343,45.918 241.056,46.382 240.852,46.922 C240.648,47.462 240.546,48.056 240.546,48.704 C240.546,49.352 240.644,49.946 240.84,50.486 C241.036,51.026 241.312,51.489 241.668,51.875 C242.024,52.261 242.454,52.561 242.958,52.775 C243.462,52.989 244.022,53.096 244.638,53.096 Z M250.392,53.096 C250.624,53.096 250.835,53.075 251.025,53.033 C251.215,52.991 251.394,52.931 251.562,52.853 C251.73,52.775 251.89,52.679 252.042,52.565 C252.194,52.451 252.35,52.32 252.51,52.172 L252.51,52.172 L252.63,52.748 C252.662,52.848 252.706,52.915 252.762,52.949 C252.818,52.983 252.898,53 253.002,53 L253.002,53 L253.476,53 L253.476,49.112 C253.476,48.772 253.43,48.46 253.338,48.176 C253.246,47.892 253.11,47.65 252.93,47.45 C252.75,47.25 252.528,47.094 252.264,46.982 C252,46.87 251.698,46.814 251.358,46.814 C250.886,46.814 250.456,46.894 250.068,47.054 C249.68,47.214 249.318,47.456 248.982,47.78 L248.982,47.78 L249.174,48.122 C249.21,48.178 249.254,48.225 249.306,48.263 C249.358,48.301 249.42,48.32 249.492,48.32 C249.584,48.32 249.677,48.287 249.771,48.221 C249.865,48.155 249.977,48.081 250.107,47.999 C250.237,47.917 250.391,47.843 250.569,47.777 C250.747,47.711 250.968,47.678 251.232,47.678 C251.624,47.678 251.922,47.799 252.126,48.041 C252.33,48.283 252.432,48.64 252.432,49.112 L252.432,49.112 L252.432,49.586 C251.74,49.602 251.156,49.665 250.68,49.775 C250.204,49.885 249.818,50.026 249.522,50.198 C249.226,50.37 249.012,50.567 248.88,50.789 C248.748,51.011 248.682,51.242 248.682,51.482 C248.682,51.758 248.727,51.997 248.817,52.199 C248.907,52.401 249.029,52.568 249.183,52.7 C249.337,52.832 249.518,52.931 249.726,52.997 C249.934,53.063 250.156,53.096 250.392,53.096 Z M250.71,52.346 C250.57,52.346 250.439,52.329 250.317,52.295 C250.195,52.261 250.089,52.207 249.999,52.133 C249.909,52.059 249.838,51.964 249.786,51.848 C249.734,51.732 249.708,51.594 249.708,51.434 C249.708,51.266 249.757,51.114 249.855,50.978 C249.953,50.842 250.111,50.724 250.329,50.624 C250.547,50.524 250.829,50.443 251.175,50.381 C251.521,50.319 251.94,50.28 252.432,50.264 L252.432,50.264 L252.432,51.524 C252.312,51.652 252.189,51.766 252.063,51.866 C251.937,51.966 251.805,52.052 251.667,52.124 C251.529,52.196 251.382,52.251 251.226,52.289 C251.07,52.327 250.898,52.346 250.71,52.346 Z M256.476,55.058 L256.476,52.37 C256.68,52.594 256.915,52.769 257.181,52.895 C257.447,53.021 257.766,53.084 258.138,53.084 C258.546,53.084 258.913,53.003 259.239,52.841 C259.565,52.679 259.841,52.457 260.067,52.175 C260.293,51.893 260.466,51.559 260.586,51.173 C260.706,50.787 260.766,50.37 260.766,49.922 C260.766,49.418 260.712,48.972 260.604,48.584 C260.496,48.196 260.342,47.871 260.142,47.609 C259.942,47.347 259.7,47.149 259.416,47.015 C259.132,46.881 258.814,46.814 258.462,46.814 C258.03,46.814 257.646,46.91 257.31,47.102 C256.974,47.294 256.678,47.548 256.422,47.864 L256.422,47.864 L256.326,47.144 C256.29,46.996 256.196,46.922 256.044,46.922 L256.044,46.922 L255.402,46.922 L255.402,55.058 L256.476,55.058 Z M257.898,52.256 C257.61,52.256 257.35,52.202 257.118,52.094 C256.886,51.986 256.672,51.8 256.476,51.536 L256.476,51.536 L256.476,48.596 C256.696,48.304 256.937,48.078 257.199,47.918 C257.461,47.758 257.766,47.678 258.114,47.678 C258.358,47.678 258.576,47.72 258.768,47.804 C258.96,47.888 259.122,48.021 259.254,48.203 C259.386,48.385 259.487,48.618 259.557,48.902 C259.627,49.186 259.662,49.526 259.662,49.922 C259.662,50.67 259.51,51.246 259.206,51.65 C258.902,52.054 258.466,52.256 257.898,52.256 Z M263.682,53.096 C263.914,53.096 264.125,53.075 264.315,53.033 C264.505,52.991 264.684,52.931 264.852,52.853 C265.02,52.775 265.18,52.679 265.332,52.565 C265.484,52.451 265.64,52.32 265.8,52.172 L265.8,52.172 L265.92,52.748 C265.952,52.848 265.996,52.915 266.052,52.949 C266.108,52.983 266.188,53 266.292,53 L266.292,53 L266.766,53 L266.766,49.112 C266.766,48.772 266.72,48.46 266.628,48.176 C266.536,47.892 266.4,47.65 266.22,47.45 C266.04,47.25 265.818,47.094 265.554,46.982 C265.29,46.87 264.988,46.814 264.648,46.814 C264.176,46.814 263.746,46.894 263.358,47.054 C262.97,47.214 262.608,47.456 262.272,47.78 L262.272,47.78 L262.464,48.122 C262.5,48.178 262.544,48.225 262.596,48.263 C262.648,48.301 262.71,48.32 262.782,48.32 C262.874,48.32 262.967,48.287 263.061,48.221 C263.155,48.155 263.267,48.081 263.397,47.999 C263.527,47.917 263.681,47.843 263.859,47.777 C264.037,47.711 264.258,47.678 264.522,47.678 C264.914,47.678 265.212,47.799 265.416,48.041 C265.62,48.283 265.722,48.64 265.722,49.112 L265.722,49.112 L265.722,49.586 C265.03,49.602 264.446,49.665 263.97,49.775 C263.494,49.885 263.108,50.026 262.812,50.198 C262.516,50.37 262.302,50.567 262.17,50.789 C262.038,51.011 261.972,51.242 261.972,51.482 C261.972,51.758 262.017,51.997 262.107,52.199 C262.197,52.401 262.319,52.568 262.473,52.7 C262.627,52.832 262.808,52.931 263.016,52.997 C263.224,53.063 263.446,53.096 263.682,53.096 Z M264,52.346 C263.86,52.346 263.729,52.329 263.607,52.295 C263.485,52.261 263.379,52.207 263.289,52.133 C263.199,52.059 263.128,51.964 263.076,51.848 C263.024,51.732 262.998,51.594 262.998,51.434 C262.998,51.266 263.047,51.114 263.145,50.978 C263.243,50.842 263.401,50.724 263.619,50.624 C263.837,50.524 264.119,50.443 264.465,50.381 C264.811,50.319 265.23,50.28 265.722,50.264 L265.722,50.264 L265.722,51.524 C265.602,51.652 265.479,51.766 265.353,51.866 C265.227,51.966 265.095,52.052 264.957,52.124 C264.819,52.196 264.672,52.251 264.516,52.289 C264.36,52.327 264.188,52.346 264,52.346 Z M271.026,53.084 C271.246,53.084 271.462,53.066 271.674,53.03 C271.886,52.994 272.089,52.937 272.283,52.859 C272.477,52.781 272.658,52.684 272.826,52.568 C272.994,52.452 273.144,52.312 273.276,52.148 L273.276,52.148 L272.976,51.758 C272.928,51.69 272.86,51.656 272.772,51.656 C272.7,51.656 272.627,51.687 272.553,51.749 C272.479,51.811 272.387,51.88 272.277,51.956 C272.167,52.032 272.028,52.101 271.86,52.163 C271.692,52.225 271.478,52.256 271.218,52.256 C270.946,52.256 270.701,52.205 270.483,52.103 C270.265,52.001 270.079,51.853 269.925,51.659 C269.771,51.465 269.652,51.225 269.568,50.939 C269.484,50.653 269.442,50.326 269.442,49.958 C269.442,49.606 269.481,49.288 269.559,49.004 C269.637,48.72 269.753,48.478 269.907,48.278 C270.061,48.078 270.252,47.925 270.48,47.819 C270.708,47.713 270.972,47.66 271.272,47.66 C271.496,47.66 271.685,47.685 271.839,47.735 C271.993,47.785 272.123,47.84 272.229,47.9 C272.335,47.96 272.424,48.015 272.496,48.065 C272.568,48.115 272.634,48.14 272.694,48.14 C272.75,48.14 272.794,48.128 272.826,48.104 C272.858,48.08 272.89,48.046 272.922,48.002 L272.922,48.002 L273.204,47.618 C272.952,47.366 272.663,47.171 272.337,47.033 C272.011,46.895 271.634,46.826 271.206,46.826 C270.746,46.826 270.339,46.904 269.985,47.06 C269.631,47.216 269.333,47.433 269.091,47.711 C268.849,47.989 268.665,48.32 268.539,48.704 C268.413,49.088 268.35,49.506 268.35,49.958 C268.35,50.454 268.418,50.896 268.554,51.284 C268.69,51.672 268.878,51.999 269.118,52.265 C269.358,52.531 269.641,52.734 269.967,52.874 C270.293,53.014 270.646,53.084 271.026,53.084 Z M275.304,45.77 C275.408,45.77 275.507,45.75 275.601,45.71 C275.695,45.67 275.777,45.615 275.847,45.545 C275.917,45.475 275.973,45.395 276.015,45.305 C276.057,45.215 276.078,45.118 276.078,45.014 C276.078,44.91 276.057,44.811 276.015,44.717 C275.973,44.623 275.917,44.541 275.847,44.471 C275.777,44.401 275.695,44.346 275.601,44.306 C275.507,44.266 275.408,44.246 275.304,44.246 C275.2,44.246 275.103,44.266 275.013,44.306 C274.923,44.346 274.844,44.401 274.776,44.471 C274.708,44.541 274.654,44.623 274.614,44.717 C274.574,44.811 274.554,44.91 274.554,45.014 C274.554,45.118 274.574,45.215 274.614,45.305 C274.654,45.395 274.708,45.475 274.776,45.545 C274.844,45.615 274.923,45.67 275.013,45.71 C275.103,45.75 275.2,45.77 275.304,45.77 Z M275.85,53 L275.85,46.922 L274.782,46.922 L274.782,53 L275.85,53 Z M279.768,53.096 C280.044,53.096 280.312,53.047 280.572,52.949 C280.832,52.851 281.054,52.716 281.238,52.544 L281.238,52.544 L280.926,52.034 C280.882,51.966 280.832,51.932 280.776,51.932 C280.744,51.932 280.707,51.947 280.665,51.977 C280.623,52.007 280.572,52.04 280.512,52.076 C280.452,52.112 280.381,52.145 280.299,52.175 C280.217,52.205 280.12,52.22 280.008,52.22 C279.812,52.22 279.652,52.158 279.528,52.034 C279.404,51.91 279.342,51.72 279.342,51.464 L279.342,51.464 L279.342,47.816 L281.1,47.816 L281.1,47.042 L279.342,47.042 L279.342,44.948 L278.802,44.948 C278.734,44.948 278.679,44.967 278.637,45.005 C278.595,45.043 278.568,45.092 278.556,45.152 L278.556,45.152 L278.31,47.03 L277.314,47.156 L277.314,47.582 C277.314,47.662 277.336,47.721 277.38,47.759 C277.424,47.797 277.478,47.816 277.542,47.816 L277.542,47.816 L278.274,47.816 L278.274,51.536 C278.274,52.04 278.403,52.426 278.661,52.694 C278.919,52.962 279.288,53.096 279.768,53.096 Z M283.974,55.058 C284.086,55.058 284.169,55.034 284.223,54.986 C284.277,54.938 284.322,54.874 284.358,54.794 L284.358,54.794 L287.748,46.922 L286.902,46.922 C286.83,46.922 286.765,46.943 286.707,46.985 C286.649,47.027 286.608,47.08 286.584,47.144 L286.584,47.144 L285.006,50.966 C284.942,51.134 284.882,51.312 284.826,51.5 C284.782,51.316 284.728,51.14 284.664,50.972 L284.664,50.972 L283.038,47.144 C283.018,47.088 282.981,47.037 282.927,46.991 C282.873,46.945 282.8,46.922 282.708,46.922 L282.708,46.922 L281.784,46.922 L284.292,52.646 L283.182,55.058 L283.974,55.058 Z M295.356,53 C295.836,53 296.264,52.941 296.64,52.823 C297.016,52.705 297.333,52.538 297.591,52.322 C297.849,52.106 298.045,51.848 298.179,51.548 C298.313,51.248 298.38,50.916 298.38,50.552 C298.38,50.016 298.221,49.583 297.903,49.253 C297.585,48.923 297.11,48.698 296.478,48.578 C296.75,48.494 296.987,48.385 297.189,48.251 C297.391,48.117 297.558,47.966 297.69,47.798 C297.822,47.63 297.921,47.449 297.987,47.255 C298.053,47.061 298.086,46.858 298.086,46.646 C298.086,46.298 298.028,45.985 297.912,45.707 C297.796,45.429 297.615,45.194 297.369,45.002 C297.123,44.81 296.809,44.662 296.427,44.558 C296.045,44.454 295.59,44.402 295.062,44.402 L295.062,44.402 L292.32,44.402 L292.32,53 L295.356,53 Z M295.014,48.254 L293.478,48.254 L293.478,45.32 L295.062,45.32 C295.702,45.32 296.174,45.437 296.478,45.671 C296.782,45.905 296.934,46.276 296.934,46.784 C296.934,47 296.896,47.199 296.82,47.381 C296.744,47.563 296.627,47.718 296.469,47.846 C296.311,47.974 296.111,48.074 295.869,48.146 C295.627,48.218 295.342,48.254 295.014,48.254 L295.014,48.254 Z M295.338,52.076 L293.478,52.076 L293.478,49.082 L295.338,49.082 C295.97,49.082 296.444,49.211 296.76,49.469 C297.076,49.727 297.234,50.078 297.234,50.522 C297.234,50.75 297.198,50.959 297.126,51.149 C297.054,51.339 296.941,51.503 296.787,51.641 C296.633,51.779 296.436,51.886 296.196,51.962 C295.956,52.038 295.67,52.076 295.338,52.076 L295.338,52.076 Z M301.974,53.096 C302.398,53.096 302.774,53.007 303.102,52.829 C303.43,52.651 303.726,52.416 303.99,52.124 L303.99,52.124 L304.074,52.778 C304.114,52.926 304.21,53 304.362,53 L304.362,53 L304.998,53 L304.998,46.922 L303.93,46.922 L303.93,51.398 C303.698,51.662 303.445,51.869 303.171,52.019 C302.897,52.169 302.602,52.244 302.286,52.244 C301.854,52.244 301.533,52.118 301.323,51.866 C301.113,51.614 301.008,51.258 301.008,50.798 L301.008,50.798 L301.008,46.922 L299.94,46.922 L299.94,50.798 C299.94,51.142 299.983,51.456 300.069,51.74 C300.155,52.024 300.284,52.266 300.456,52.466 C300.628,52.666 300.841,52.821 301.095,52.931 C301.349,53.041 301.642,53.096 301.974,53.096 Z M307.572,45.77 C307.676,45.77 307.775,45.75 307.869,45.71 C307.963,45.67 308.045,45.615 308.115,45.545 C308.185,45.475 308.241,45.395 308.283,45.305 C308.325,45.215 308.346,45.118 308.346,45.014 C308.346,44.91 308.325,44.811 308.283,44.717 C308.241,44.623 308.185,44.541 308.115,44.471 C308.045,44.401 307.963,44.346 307.869,44.306 C307.775,44.266 307.676,44.246 307.572,44.246 C307.468,44.246 307.371,44.266 307.281,44.306 C307.191,44.346 307.112,44.401 307.044,44.471 C306.976,44.541 306.922,44.623 306.882,44.717 C306.842,44.811 306.822,44.91 306.822,45.014 C306.822,45.118 306.842,45.215 306.882,45.305 C306.922,45.395 306.976,45.475 307.044,45.545 C307.112,45.615 307.191,45.67 307.281,45.71 C307.371,45.75 307.468,45.77 307.572,45.77 Z M308.118,53 L308.118,46.922 L307.05,46.922 L307.05,53 L308.118,53 Z M311.274,53 L311.274,44.162 L310.206,44.162 L310.206,53 L311.274,53 Z M315.27,53.084 C315.706,53.084 316.09,52.988 316.422,52.796 C316.754,52.604 317.05,52.352 317.31,52.04 L317.31,52.04 L317.406,52.778 C317.446,52.926 317.542,53 317.694,53 L317.694,53 L318.33,53 L318.33,44.162 L317.262,44.162 L317.262,47.528 C317.054,47.304 316.817,47.129 316.551,47.003 C316.285,46.877 315.966,46.814 315.594,46.814 C315.186,46.814 314.819,46.895 314.493,47.057 C314.167,47.219 313.892,47.442 313.668,47.726 C313.444,48.01 313.272,48.345 313.152,48.731 C313.032,49.117 312.972,49.534 312.972,49.982 C312.972,50.486 313.026,50.932 313.134,51.32 C313.242,51.708 313.396,52.032 313.596,52.292 C313.796,52.552 314.038,52.749 314.322,52.883 C314.606,53.017 314.922,53.084 315.27,53.084 Z M315.618,52.22 C315.374,52.22 315.156,52.178 314.964,52.094 C314.772,52.01 314.61,51.877 314.478,51.695 C314.346,51.513 314.246,51.281 314.178,50.999 C314.11,50.717 314.076,50.378 314.076,49.982 C314.076,49.234 314.228,48.658 314.532,48.254 C314.836,47.85 315.27,47.648 315.834,47.648 C316.122,47.648 316.382,47.701 316.614,47.807 C316.846,47.913 317.062,48.1 317.262,48.368 L317.262,48.368 L317.262,51.302 C317.042,51.594 316.801,51.82 316.539,51.98 C316.277,52.14 315.97,52.22 315.618,52.22 Z M320.904,45.77 C321.008,45.77 321.107,45.75 321.201,45.71 C321.295,45.67 321.377,45.615 321.447,45.545 C321.517,45.475 321.573,45.395 321.615,45.305 C321.657,45.215 321.678,45.118 321.678,45.014 C321.678,44.91 321.657,44.811 321.615,44.717 C321.573,44.623 321.517,44.541 321.447,44.471 C321.377,44.401 321.295,44.346 321.201,44.306 C321.107,44.266 321.008,44.246 320.904,44.246 C320.8,44.246 320.703,44.266 320.613,44.306 C320.523,44.346 320.444,44.401 320.376,44.471 C320.308,44.541 320.254,44.623 320.214,44.717 C320.174,44.811 320.154,44.91 320.154,45.014 C320.154,45.118 320.174,45.215 320.214,45.305 C320.254,45.395 320.308,45.475 320.376,45.545 C320.444,45.615 320.523,45.67 320.613,45.71 C320.703,45.75 320.8,45.77 320.904,45.77 Z M321.45,53 L321.45,46.922 L320.382,46.922 L320.382,53 L321.45,53 Z M324.576,53 L324.576,48.524 C324.808,48.264 325.061,48.058 325.335,47.906 C325.609,47.754 325.904,47.678 326.22,47.678 C326.648,47.678 326.967,47.805 327.177,48.059 C327.387,48.313 327.492,48.67 327.492,49.13 L327.492,49.13 L327.492,53 L328.566,53 L328.566,49.13 C328.566,48.786 328.522,48.472 328.434,48.188 C328.346,47.904 328.217,47.661 328.047,47.459 C327.877,47.257 327.665,47.101 327.411,46.991 C327.157,46.881 326.864,46.826 326.532,46.826 C326.316,46.826 326.115,46.849 325.929,46.895 C325.743,46.941 325.567,47.007 325.401,47.093 C325.235,47.179 325.078,47.282 324.93,47.402 C324.782,47.522 324.642,47.656 324.51,47.804 L324.51,47.804 L324.426,47.144 C324.39,46.996 324.296,46.922 324.144,46.922 L324.144,46.922 L323.502,46.922 L323.502,53 L324.576,53 Z M332.676,55.19 C333.12,55.19 333.519,55.133 333.873,55.019 C334.227,54.905 334.526,54.753 334.77,54.563 C335.014,54.373 335.201,54.156 335.331,53.912 C335.461,53.668 335.526,53.416 335.526,53.156 C335.526,52.876 335.467,52.648 335.349,52.472 C335.231,52.296 335.076,52.158 334.884,52.058 C334.692,51.958 334.473,51.886 334.227,51.842 C333.981,51.798 333.729,51.767 333.471,51.749 C333.213,51.731 332.961,51.718 332.715,51.71 C332.469,51.702 332.25,51.682 332.058,51.65 C331.866,51.618 331.711,51.565 331.593,51.491 C331.475,51.417 331.416,51.308 331.416,51.164 C331.416,51.072 331.45,50.981 331.518,50.891 C331.586,50.801 331.684,50.716 331.812,50.636 C332.064,50.704 332.332,50.738 332.616,50.738 C332.944,50.738 333.248,50.692 333.528,50.6 C333.808,50.508 334.048,50.376 334.248,50.204 C334.448,50.032 334.605,49.825 334.719,49.583 C334.833,49.341 334.89,49.072 334.89,48.776 C334.89,48.456 334.822,48.164 334.686,47.9 L334.686,47.9 L335.376,47.81 C335.544,47.774 335.628,47.69 335.628,47.558 L335.628,47.558 L335.628,47.162 L333.978,47.162 C333.79,47.05 333.582,46.965 333.354,46.907 C333.126,46.849 332.88,46.82 332.616,46.82 C332.28,46.82 331.971,46.866 331.689,46.958 C331.407,47.05 331.164,47.181 330.96,47.351 C330.756,47.521 330.597,47.727 330.483,47.969 C330.369,48.211 330.312,48.48 330.312,48.776 C330.312,49.144 330.396,49.467 330.564,49.745 C330.732,50.023 330.966,50.246 331.266,50.414 C331.138,50.478 331.026,50.552 330.93,50.636 C330.834,50.72 330.753,50.809 330.687,50.903 C330.621,50.997 330.572,51.091 330.54,51.185 C330.508,51.279 330.492,51.37 330.492,51.458 C330.492,51.686 330.545,51.867 330.651,52.001 C330.757,52.135 330.9,52.242 331.08,52.322 C330.752,52.446 330.494,52.612 330.306,52.82 C330.118,53.028 330.024,53.282 330.024,53.582 C330.024,53.794 330.079,53.997 330.189,54.191 C330.299,54.385 330.464,54.556 330.684,54.704 C330.904,54.852 331.18,54.97 331.512,55.058 C331.844,55.146 332.232,55.19 332.676,55.19 Z M332.616,50.03 C332.4,50.03 332.21,50 332.046,49.94 C331.882,49.88 331.744,49.796 331.632,49.688 C331.52,49.58 331.435,49.451 331.377,49.301 C331.319,49.151 331.29,48.986 331.29,48.806 C331.29,48.434 331.403,48.138 331.629,47.918 C331.855,47.698 332.184,47.588 332.616,47.588 C333.044,47.588 333.371,47.698 333.597,47.918 C333.823,48.138 333.936,48.434 333.936,48.806 C333.936,48.986 333.908,49.151 333.852,49.301 C333.796,49.451 333.712,49.58 333.6,49.688 C333.488,49.796 333.35,49.88 333.186,49.94 C333.022,50 332.832,50.03 332.616,50.03 Z M332.7,54.41 C332.404,54.41 332.147,54.385 331.929,54.335 C331.711,54.285 331.53,54.217 331.386,54.131 C331.242,54.045 331.135,53.943 331.065,53.825 C330.995,53.707 330.96,53.58 330.96,53.444 C330.96,53.232 331.031,53.047 331.173,52.889 C331.315,52.731 331.498,52.6 331.722,52.496 C331.922,52.524 332.13,52.544 332.346,52.556 C332.562,52.568 332.775,52.58 332.985,52.592 C333.195,52.604 333.394,52.621 333.582,52.643 C333.77,52.665 333.935,52.702 334.077,52.754 C334.219,52.806 334.332,52.878 334.416,52.97 C334.5,53.062 334.542,53.182 334.542,53.33 C334.542,53.49 334.5,53.636 334.416,53.768 C334.332,53.9 334.211,54.014 334.053,54.11 C333.895,54.206 333.702,54.28 333.474,54.332 C333.246,54.384 332.988,54.41 332.7,54.41 Z" id="subline" fill="#615E5E" fill-rule="nonzero"></path>
            </g>
        </g>
    </g>
</svg>